<svg width="40" height="40" viewBox="0 0 40 40" fill="none" xmlns="http://www.w3.org/2000/svg">
<path d="M24.1055 26.2188H5.78906C3.98047 26.2188 2.51172 24.75 2.51172 22.9414V10.9492C2.51172 9.14062 3.98047 7.67188 5.78906 7.67188H24.1055C25.9141 7.67188 27.3828 9.14062 27.3828 10.9492V22.9375C27.3828 24.75 25.918 26.2188 24.1055 26.2188Z" fill="#248CBE"/>
<path d="M2.51172 11.8086H27.3867V15.5625H2.51172V11.8086Z" fill="#183351"/>
<path d="M11.875 20.7734H5.01172C4.53906 20.7734 4.15234 20.3867 4.15234 19.9141C4.15234 19.4414 4.53906 19.0547 5.01172 19.0547H11.875C12.3477 19.0547 12.7344 19.4414 12.7344 19.9141C12.7344 20.3867 12.3477 20.7734 11.875 20.7734ZM17.0859 23.4844H5.01172C4.53906 23.4844 4.15234 23.0977 4.15234 22.625C4.15234 22.1523 4.53906 21.7656 5.01172 21.7656H17.0859C17.5586 21.7656 17.9453 22.1523 17.9453 22.625C17.9453 23.0977 17.5586 23.4844 17.0859 23.4844Z" fill="#FBFAEE"/>
<path d="M34.2109 32.3281H15.8945C14.0859 32.3281 12.6172 30.8594 12.6172 29.0508V17.0586C12.6172 15.25 14.0859 13.7812 15.8945 13.7812H34.2109C36.0195 13.7812 37.4883 15.25 37.4883 17.0586V29.0469C37.4883 30.8594 36.0234 32.3281 34.2109 32.3281Z" fill="#F5DB6F"/>
<path d="M30.793 23.7188H15.1172C14.6445 23.7188 14.2578 23.332 14.2578 22.8594C14.2578 22.3867 14.6445 22 15.1172 22H30.793C31.2656 22 31.6523 22.3867 31.6523 22.8594C31.6523 23.332 31.2656 23.7188 30.793 23.7188Z" fill="#AEB8C4"/>
<path d="M21.9805 26.8828H15.1172C14.6445 26.8828 14.2578 26.4961 14.2578 26.0234C14.2578 25.5508 14.6445 25.1641 15.1172 25.1641H21.9844C22.457 25.1641 22.8438 25.5508 22.8438 26.0234C22.8398 26.4961 22.4531 26.8828 21.9805 26.8828ZM27.1914 29.5937H15.1172C14.6445 29.5937 14.2578 29.207 14.2578 28.7344C14.2578 28.2617 14.6445 27.875 15.1172 27.875H27.1914C27.6641 27.875 28.0508 28.2617 28.0508 28.7344C28.0508 29.207 27.6641 29.5937 27.1914 29.5937Z" fill="#FBFAEE"/>
<path d="M19.9375 20.3242H15.6953C14.9023 20.3242 14.2578 19.6797 14.2578 18.8867V16.9023C14.2578 16.1094 14.9023 15.4648 15.6953 15.4648H19.9375C20.7305 15.4648 21.375 16.1094 21.375 16.9023V18.8867C21.375 19.6797 20.7305 20.3242 19.9375 20.3242Z" fill="#F3C262"/>
<path d="M21.375 17.1133H20.0352V15.4648H18.7109V20.3242H20.0352V18.4609H21.375V17.1133ZM15.7266 15.4648V17.1133H14.2578V18.4609H15.7266V20.3242H17.0508V15.4648H15.7266Z" fill="#F7A04D"/>
<path d="M37.4883 22.5703V18.9062C34.3398 18.8945 31.6992 16.7031 31 13.7656H27.2695C28.0195 18.7344 32.3164 22.5586 37.4883 22.5703Z" fill="#F7F9DD"/>
</svg>
