<svg width="50" height="50" viewBox="0 0 50 50" fill="none" xmlns="http://www.w3.org/2000/svg">
<path d="M50 2.39805V26.8124C50 28.1354 48.9182 29.2104 47.602 29.2104H2.39805C2.18447 29.2104 1.9708 29.1829 1.771 29.1209C0.95791 28.9073 0.310156 28.2596 0.0896484 27.4396C0.0275391 27.2395 0 27.0328 0 26.8123V2.39805C0 1.08184 1.08184 0 2.39805 0H47.6021C47.7123 0 47.8226 0.00693359 47.9328 0.0275391C48.9871 0.172266 49.8278 1.01299 49.9726 2.06729C49.9931 2.17754 50 2.28779 50 2.39805Z" fill="white"/>
<path d="M9.92275 23.208C9.86768 23.084 9.7918 22.9737 9.70225 22.891C9.60576 22.8015 9.50234 22.7394 9.38525 22.6911C9.26816 22.6429 9.14414 22.6222 9.02002 22.6222C8.97188 22.6222 8.92363 22.6222 8.88223 22.6291C8.83398 22.636 8.78574 22.6497 8.7375 22.6636L9.51621 21.2578H8.77197L7.97959 22.7324C7.89688 22.8909 7.82109 23.0425 7.75908 23.1872C7.69707 23.3318 7.6626 23.4835 7.6626 23.642C7.6626 23.8073 7.69707 23.959 7.75215 24.0899C7.81416 24.2209 7.89678 24.3311 8.0002 24.4207C8.11045 24.5103 8.23447 24.5792 8.37227 24.6274C8.51699 24.6687 8.66865 24.6964 8.83398 24.6964C8.99932 24.6964 9.15098 24.6687 9.2957 24.6205C9.44043 24.5724 9.56445 24.5034 9.66777 24.4138C9.77119 24.3242 9.85381 24.214 9.91592 24.083C9.971 23.952 10.0055 23.8005 10.0055 23.6282C10.0056 23.4768 9.97793 23.332 9.92275 23.208ZM9.18555 24.0073C9.08906 24.09 8.97197 24.1313 8.83408 24.1313C8.69629 24.1313 8.5791 24.09 8.48955 24.0073C8.39307 23.9178 8.35176 23.7937 8.35176 23.6352C8.35176 23.4767 8.39307 23.3526 8.48955 23.2699C8.5791 23.1804 8.69629 23.139 8.83408 23.139C8.97881 23.139 9.10283 23.1803 9.18555 23.2699C9.2751 23.3595 9.3165 23.4835 9.3165 23.6352C9.31641 23.7937 9.2751 23.9178 9.18555 24.0073Z" fill="#676868"/>
<path d="M12.3691 21.2578L11.6041 21.8573V22.5326L12.3691 21.9262V24.6688H13.0513V21.2578H12.3691Z" fill="#676868"/>
<path d="M17.0686 23.5937V22.9598H16.4071V23.5937H15.6216L16.9101 21.2578H16.1591L14.8773 23.5937V24.1795H16.4071V24.6688H17.0686V24.1795H17.4062V23.5937H17.0686Z" fill="#676868"/>
<path d="M20.5485 23.0014C20.6174 22.9324 20.6725 22.8704 20.7208 22.8084C20.7758 22.7532 20.8172 22.6912 20.8517 22.6292C20.8792 22.5672 20.9068 22.5052 20.9275 22.4432C20.9413 22.3743 20.955 22.3054 20.955 22.2227C20.955 22.0642 20.9206 21.9264 20.8655 21.8023C20.8104 21.6853 20.7345 21.5818 20.6312 21.4923C20.5347 21.4096 20.4107 21.3476 20.2729 21.2994C20.1351 21.2512 19.9766 21.2305 19.8112 21.2305C19.6527 21.2305 19.5011 21.2512 19.3632 21.2925C19.2254 21.3407 19.1014 21.4027 18.998 21.4923C18.8946 21.575 18.8188 21.6853 18.7568 21.8023C18.7017 21.9264 18.6741 22.0711 18.6741 22.2227H19.3563C19.3563 22.1399 19.3701 22.0711 19.3976 22.0159C19.4252 21.9607 19.4596 21.9125 19.501 21.885C19.5423 21.8505 19.5975 21.8229 19.6458 21.8092C19.7008 21.7954 19.756 21.7885 19.8111 21.7885C19.9626 21.7885 20.0729 21.8298 20.1488 21.9056C20.2315 21.9814 20.2659 22.0848 20.2659 22.2156C20.2659 22.2915 20.2521 22.3673 20.2246 22.4224C20.1901 22.4844 20.1418 22.5533 20.073 22.6291L18.6742 24.1037V24.6687H20.955V24.1037H19.501L20.5485 23.0014Z" fill="#676868"/>
<path d="M24.5521 23.0425C24.5176 22.884 24.4211 22.7393 24.2764 22.6084C24.2006 22.5396 24.1041 22.4844 23.9869 22.4431C23.8698 22.3948 23.7319 22.3742 23.5734 22.3742C23.4494 22.3742 23.3323 22.3949 23.2358 22.4293C23.1325 22.4638 23.0566 22.5051 23.0085 22.5465V21.816H24.5244V21.2578H22.3883V23.1804H23.0153C23.043 23.1114 23.0843 23.0494 23.1531 22.9943C23.2221 22.9323 23.3254 22.9048 23.4701 22.9048C23.6354 22.9048 23.7596 22.96 23.8216 23.0633C23.8904 23.1666 23.9249 23.3183 23.9249 23.5181C23.9249 23.6283 23.918 23.7248 23.8974 23.8144C23.8767 23.8971 23.8422 23.9729 23.7803 24.0211C23.6976 24.097 23.5873 24.1313 23.4563 24.1313C23.3116 24.1313 23.2014 24.0969 23.1325 24.0211C23.0566 23.9521 23.0153 23.8488 22.9947 23.711H22.3125C22.3194 23.8351 22.347 23.9591 22.3813 24.0831C22.4227 24.2002 22.4984 24.3174 22.6156 24.4208C22.6983 24.4966 22.8086 24.5586 22.9464 24.6138C23.0911 24.6688 23.2564 24.6965 23.4563 24.6965C23.6492 24.6965 23.8146 24.6688 23.9524 24.6138C24.0834 24.5586 24.1936 24.4966 24.2832 24.4139C24.4142 24.2898 24.5037 24.1589 24.552 24.0143C24.5933 23.8765 24.614 23.711 24.614 23.5181C24.6141 23.3526 24.5935 23.1941 24.5521 23.0425Z" fill="#676868"/>
<path d="M28.1698 23.208C28.1146 23.084 28.0388 22.9737 27.9493 22.891C27.8528 22.8015 27.7495 22.7394 27.6323 22.6911C27.5152 22.6429 27.3912 22.6222 27.2671 22.6222C27.2188 22.6222 27.1706 22.6222 27.1293 22.6291C27.081 22.636 27.0328 22.6497 26.9845 22.6636L27.7632 21.2578H27.0189L26.2265 22.7324C26.1438 22.8909 26.068 23.0425 26.006 23.1872C25.944 23.3318 25.9095 23.4835 25.9095 23.642C25.9095 23.8073 25.944 23.959 25.9991 24.0899C26.0611 24.2209 26.1438 24.3311 26.2471 24.4207C26.3574 24.5103 26.4814 24.5792 26.6193 24.6274C26.764 24.6687 26.9156 24.6964 27.081 24.6964C27.2465 24.6964 27.398 24.6687 27.5427 24.6205C27.6875 24.5724 27.8115 24.5034 27.9149 24.4138C28.0182 24.3242 28.101 24.214 28.163 24.083C28.2181 23.952 28.2525 23.8005 28.2525 23.6282C28.2524 23.4768 28.2249 23.332 28.1698 23.208ZM27.4324 24.0073C27.3359 24.09 27.2188 24.1313 27.0809 24.1313C26.9431 24.1313 26.826 24.09 26.7364 24.0073C26.6399 23.9178 26.5986 23.7937 26.5986 23.6352C26.5986 23.4767 26.6399 23.3526 26.7364 23.2699C26.826 23.1804 26.9431 23.139 27.0809 23.139C27.2326 23.139 27.3497 23.1803 27.4324 23.2699C27.5219 23.3595 27.5634 23.4835 27.5634 23.6352C27.5634 23.7937 27.522 23.9178 27.4324 24.0073Z" fill="#676868"/>
<path d="M31.8977 23.394C31.8702 23.3183 31.8289 23.2493 31.7806 23.1873C31.7324 23.1253 31.6841 23.0701 31.629 23.022C31.5739 22.9807 31.5187 22.9393 31.4705 22.9117C31.5118 22.8772 31.56 22.8429 31.6152 22.8015C31.6634 22.7532 31.7117 22.705 31.753 22.643C31.7875 22.5879 31.8218 22.5259 31.8495 22.4501C31.8771 22.3743 31.8908 22.2916 31.8908 22.202C31.8908 22.0504 31.8563 21.9126 31.7943 21.7955C31.7391 21.6784 31.6565 21.575 31.5531 21.4923C31.4498 21.4027 31.3256 21.3407 31.1878 21.2925C31.0501 21.2512 30.8984 21.2305 30.7399 21.2305C30.5814 21.2305 30.4367 21.2512 30.2989 21.2925C30.1611 21.3407 30.0371 21.4027 29.9336 21.4923C29.8234 21.575 29.7407 21.6783 29.6787 21.7955C29.6167 21.9126 29.5891 22.0505 29.5891 22.202C29.5891 22.2916 29.6029 22.3743 29.6304 22.4501C29.651 22.5259 29.6856 22.5879 29.7269 22.643C29.7682 22.705 29.8096 22.7532 29.8647 22.8015C29.9129 22.8428 29.9612 22.8772 30.0094 22.9117C29.9542 22.9393 29.906 22.9807 29.8509 23.022C29.7958 23.0701 29.7475 23.1253 29.6993 23.1873C29.651 23.2493 29.6166 23.3183 29.589 23.394C29.5545 23.4768 29.5408 23.5663 29.5408 23.6766C29.5408 23.842 29.5752 23.9866 29.6373 24.1106C29.6993 24.2416 29.782 24.3449 29.8922 24.4346C30.0025 24.5173 30.1265 24.5861 30.2781 24.6275C30.4228 24.6688 30.5744 24.6965 30.7398 24.6965C30.9052 24.6965 31.0637 24.6688 31.2084 24.6275C31.3531 24.5862 31.484 24.5173 31.5874 24.4346C31.6976 24.345 31.7873 24.2416 31.8492 24.1106C31.9112 23.9866 31.9457 23.8419 31.9457 23.6766C31.9459 23.5663 31.9252 23.4768 31.8977 23.394ZM30.4092 21.9125C30.4988 21.8298 30.609 21.7885 30.74 21.7885C30.8778 21.7885 30.988 21.8298 31.0708 21.9125C31.1603 21.9952 31.2085 22.0985 31.2085 22.2226C31.2085 22.3466 31.1603 22.45 31.0708 22.5258C30.988 22.6085 30.8778 22.6498 30.74 22.6498C30.609 22.6498 30.4988 22.6085 30.4092 22.5258C30.3197 22.45 30.2714 22.3466 30.2714 22.2226C30.2714 22.0985 30.3197 21.9952 30.4092 21.9125ZM31.1122 24.0005C31.0088 24.09 30.8917 24.1314 30.7401 24.1314C30.5954 24.1314 30.4713 24.0901 30.3749 24.0005C30.2714 23.9109 30.2232 23.8006 30.2232 23.6628C30.2232 23.5318 30.2714 23.4216 30.3749 23.3252C30.4713 23.2356 30.5954 23.1942 30.7401 23.1942C30.8917 23.1942 31.0088 23.2355 31.1122 23.3252C31.2086 23.4217 31.2569 23.5319 31.2569 23.6628C31.2568 23.8006 31.2085 23.9108 31.1122 24.0005Z" fill="#676868"/>
<path d="M33.2208 21.2579V22.3535H33.8754V21.816H34.8677L33.6481 24.6687H34.3922L35.605 21.816V21.2578L33.2208 21.2579Z" fill="#676868"/>
<path d="M39.1261 21.83C39.0641 21.699 38.9814 21.5888 38.8781 21.4992C38.7748 21.4097 38.6507 21.3476 38.506 21.2994C38.3613 21.2512 38.2097 21.2305 38.0443 21.2305C37.8789 21.2305 37.7273 21.2512 37.5826 21.2994C37.4448 21.3477 37.3208 21.4165 37.2105 21.5062C37.1071 21.6026 37.0245 21.7129 36.9693 21.8438C36.9073 21.9748 36.8798 22.1264 36.8798 22.2918C36.8798 22.4503 36.9073 22.5949 36.9625 22.719C37.0176 22.8431 37.0934 22.9464 37.183 23.036C37.2725 23.1188 37.376 23.1877 37.5 23.229C37.6171 23.2772 37.7412 23.3048 37.8652 23.3048C37.9135 23.3048 37.9617 23.2979 38.0099 23.291C38.0512 23.2841 38.0995 23.2772 38.1477 23.2565L37.369 24.6691H38.1063L38.9056 23.1945C38.9884 23.036 39.0641 22.8845 39.1261 22.7397C39.1813 22.5882 39.2157 22.4365 39.2157 22.285C39.2158 22.1126 39.1883 21.9609 39.1261 21.83ZM38.3958 22.6569C38.2994 22.7396 38.189 22.7879 38.0443 22.7879C37.8996 22.7879 37.7825 22.7396 37.6929 22.6501C37.6034 22.5605 37.562 22.4434 37.562 22.2849C37.562 22.1264 37.6102 22.0023 37.6998 21.9196C37.7893 21.8301 37.9065 21.7887 38.0443 21.7887C38.189 21.7887 38.2993 21.83 38.3958 21.9196C38.4853 22.0023 38.5336 22.1264 38.5336 22.2849C38.5336 22.4433 38.4853 22.5674 38.3958 22.6569Z" fill="#676868"/>
<path d="M41.352 21.2578L40.587 21.8573V22.5326L41.352 21.9262V24.6688H42.041V21.2578H41.352Z" fill="#676868"/>
<path d="M47.1192 3.9043H44.6852V25.3082H47.1192V3.9043Z" fill="#676868"/>
<path d="M5.31472 3.9043H2.88074V25.3082H5.31472V3.9043Z" fill="#676868"/>
<path d="M8.36077 3.9043H7.18811V19.0493H8.36077V3.9043Z" fill="#676868"/>
<path d="M14.7205 3.9043H14.1138V19.0493H14.7205V3.9043Z" fill="#676868"/>
<path d="M22.2387 3.9043H19.9039V19.0493H22.2387V3.9043Z" fill="#676868"/>
<path d="M18.216 3.9043H16.9027V19.0493H18.216V3.9043Z" fill="#676868"/>
<path d="M34.877 3.9043H34.3383V19.0493H34.877V3.9043Z" fill="#676868"/>
<path d="M39.0387 3.9043H37.0856V19.0493H39.0387V3.9043Z" fill="#676868"/>
<path d="M25.079 3.9043H23.574V19.0493H25.079V3.9043Z" fill="#676868"/>
<path d="M32.4196 3.9043H29.4332V19.0493H32.4196V3.9043Z" fill="#676868"/>
<path d="M27.9761 3.9043H26.1351V19.0493H27.9761V3.9043Z" fill="#676868"/>
<path d="M42.4739 3.9043H41.2277V19.0493H42.4739V3.9043Z" fill="#676868"/>
<path d="M12.2593 3.9043H9.55127V19.0493H12.2593V3.9043Z" fill="#676868"/>
</svg>
