<svg width="21" height="20" viewBox="0 0 21 20" fill="none" xmlns="http://www.w3.org/2000/svg">
<g clip-path="url(#clip0_2693_1124)">
<path d="M19.6708 14.2508H5.27985V2.16358C5.27985 1.73321 4.93087 1.38428 4.5005 1.38428C4.07017 1.38428 3.72125 1.73321 3.72125 2.16358V14.2508H1.2793C0.848978 14.2508 0.5 14.5997 0.5 15.0301C0.5 15.4604 0.848978 15.8094 1.2793 15.8094H3.72125V17.8363C3.72125 18.2668 4.07017 18.6156 4.5005 18.6156C4.93087 18.6156 5.27985 18.2668 5.27985 17.8363V15.8094H19.6708C20.1011 15.8094 20.4501 15.4604 20.4501 15.0301C20.4501 14.5997 20.1011 14.2508 19.6708 14.2508Z" fill="black"/>
<path d="M7.13365 12.6981H9.27829C9.41605 12.6981 9.52767 12.5864 9.52767 12.4487V7.48131C9.52767 7.3436 9.41605 7.23193 9.27829 7.23193H7.13365C6.9959 7.23193 6.88428 7.3436 6.88428 7.48131V12.4487C6.88428 12.5864 6.9959 12.6981 7.13365 12.6981Z" fill="black"/>
<path d="M10.6249 12.6981H12.7695C12.9073 12.6981 13.0189 12.5864 13.0189 12.4487V10.2613C12.808 10.1207 12.6095 9.95826 12.4261 9.77496C11.6986 9.04748 11.298 8.08025 11.298 7.05142C11.298 6.36868 11.4754 5.71362 11.8067 5.13721H10.6249C10.4871 5.13721 10.3755 5.24888 10.3755 5.38658V12.4487C10.3755 12.5864 10.4871 12.6981 10.6249 12.6981Z" fill="black"/>
<path d="M13.8667 10.6849V12.4487C13.8667 12.5864 13.9783 12.6981 14.1161 12.6981H16.2607C16.3985 12.6981 16.5101 12.5864 16.5101 12.4487V10.6562C16.0794 10.819 15.6204 10.9032 15.1498 10.9032C14.7058 10.9032 14.2734 10.8282 13.8667 10.6849Z" fill="black"/>
<path d="M15.1495 10.1798C15.8012 10.1798 16.4221 9.98096 16.9443 9.61348L19.5737 12.2428C19.6796 12.3487 19.8185 12.4017 19.9573 12.4017C20.0961 12.4017 20.235 12.3487 20.3409 12.2428C20.5527 12.0309 20.5527 11.6874 20.3409 11.4756L17.7115 8.84624C18.0791 8.32395 18.2778 7.7031 18.2778 7.05128C18.2778 6.21567 17.9524 5.43003 17.3615 4.83916C16.7706 4.24824 15.985 3.92285 15.1494 3.92285C14.3137 3.92285 13.5281 4.24829 12.9372 4.83916C12.3464 5.43008 12.021 6.21572 12.021 7.05133C12.021 7.88694 12.3464 8.67258 12.9373 9.2634C13.5282 9.85437 14.3138 10.1798 15.1495 10.1798ZM13.5766 5.47856C13.9968 5.05846 14.5553 4.82709 15.1495 4.82709C15.7435 4.82709 16.3021 5.05846 16.7222 5.47856C17.1424 5.89871 17.3737 6.45727 17.3737 7.05138C17.3737 7.6455 17.1424 8.20405 16.7222 8.62415C16.3021 9.0443 15.7435 9.27567 15.1495 9.27567C14.5553 9.27567 13.9968 9.0443 13.5766 8.62415C13.1566 8.20405 12.9252 7.64545 12.9252 7.05138C12.9252 6.45722 13.1566 5.89871 13.5766 5.47856Z" fill="black"/>
<path d="M14.9324 8.07992V8.50406C14.9324 8.5489 14.9689 8.58526 15.0137 8.58526H15.3072C15.352 8.58526 15.3884 8.5489 15.3884 8.50406V8.09349C15.8454 8.03708 16.1287 7.77075 16.1287 7.39628C16.1287 6.90032 15.7001 6.77763 15.3558 6.67902C15.0892 6.60267 14.9273 6.54621 14.9273 6.40581C14.9273 6.3092 15.0134 6.25379 15.1637 6.25379C15.3312 6.25379 15.5963 6.33464 15.8234 6.45503C15.8429 6.46541 15.8657 6.46745 15.8868 6.46042C15.9077 6.45354 15.925 6.43843 15.9346 6.41853L16.0944 6.08681C16.1128 6.0486 16.0987 6.00267 16.062 5.98137C15.8716 5.87075 15.6328 5.79484 15.3885 5.76701V5.38247C15.3885 5.33763 15.3521 5.30127 15.3073 5.30127H15.0137C14.9689 5.30127 14.9325 5.33763 14.9325 5.38247V5.78416C14.5319 5.86416 14.2931 6.11533 14.2931 6.45778C14.2931 6.93992 14.7164 7.05588 15.0567 7.14905C15.3291 7.22371 15.4945 7.27957 15.4945 7.42556C15.4945 7.58616 15.3179 7.6101 15.2126 7.6101C14.9929 7.6101 14.6845 7.49234 14.4627 7.32371C14.4434 7.3091 14.4187 7.30381 14.3952 7.30925C14.3717 7.31469 14.3518 7.3303 14.341 7.35184L14.1796 7.67229C14.162 7.70725 14.1718 7.74975 14.203 7.77344C14.4057 7.92765 14.6644 8.03628 14.9324 8.07992Z" fill="black"/>
</g>
<defs>
<clipPath id="clip0_2693_1124">
<rect x="0.5" width="20" height="20" rx="10" fill="white"/>
</clipPath>
</defs>
</svg>
