<svg width="40" height="40" viewBox="0 0 40 40" fill="none" xmlns="http://www.w3.org/2000/svg">
<g clip-path="url(#clip0_2791_994)">
<path fill-rule="evenodd" clip-rule="evenodd" d="M20.0003 0C8.81029 0 0.138031 8.18841 0.138031 19.2475C0.138031 25.0324 2.51187 30.0309 6.37647 33.4844C6.70022 33.7759 6.89596 34.1791 6.91195 34.6142L7.0199 38.1435C7.05585 39.2694 8.21879 40 9.24994 39.5488L13.1904 37.8122C13.5238 37.6647 13.8978 37.6365 14.2495 37.7323C16.0598 38.2314 17.9901 38.4948 20.0003 38.4948C31.1903 38.4948 39.8625 30.3064 39.8625 19.2474C39.8625 8.18841 31.1903 0 20.0003 0Z" fill="url(#paint0_linear_2791_994)"/>
<path fill-rule="evenodd" clip-rule="evenodd" d="M8.075 24.8768L13.9097 15.6304C14.8369 14.1612 16.8271 13.7939 18.2179 14.8359L22.8577 18.3133C23.065 18.4682 23.317 18.5516 23.5757 18.5509C23.8345 18.5502 24.086 18.4654 24.2924 18.3093L30.5589 13.5583C31.3941 12.9236 32.4892 13.9257 31.9256 14.812L26.0948 24.0544C25.1677 25.5236 23.1775 25.891 21.7867 24.8489L17.1469 21.3715C16.9396 21.2166 16.6876 21.1332 16.4288 21.1339C16.1701 21.1347 15.9186 21.2194 15.7121 21.3755L9.44172 26.1305C8.60652 26.7653 7.51141 25.7632 8.075 24.8768Z" fill="white"/>
</g>
<defs>
<linearGradient id="paint0_linear_2791_994" x1="8000.14" y1="0" x2="8000.14" y2="15983.9" gradientUnits="userSpaceOnUse">
<stop stop-color="#00B2FF"/>
<stop offset="1" stop-color="#006AFF"/>
</linearGradient>
<clipPath id="clip0_2791_994">
<rect width="40" height="40" fill="white"/>
</clipPath>
</defs>
</svg>
