<svg width="40" height="40" viewBox="0 0 40 40" fill="none" xmlns="http://www.w3.org/2000/svg">
<path d="M38.745 20.1136C38.7438 9.76234 30.3525 1.37109 20 1.37109C9.64751 1.37109 1.255 9.76359 1.255 20.1161C1.255 29.4348 8.055 37.1648 16.9625 38.6161L17.07 38.6311V25.5336H12.31V20.1136H17.07V15.9861C17.0463 15.7773 17.0338 15.5348 17.0338 15.2898C17.0338 11.6361 19.9963 8.67359 23.65 8.67359C23.8263 8.67359 24.0013 8.68109 24.175 8.69359L24.1525 8.69234C25.6513 8.71359 27.1013 8.84609 28.5163 9.08234L28.3488 9.05859V13.6711H25.9838C25.8763 13.6561 25.7525 13.6473 25.6275 13.6473C24.1313 13.6473 22.9175 14.8598 22.9175 16.3573C22.9175 16.4423 22.9213 16.5261 22.9288 16.6098L22.9275 16.5986V20.1136H28.1263L27.295 25.5336H22.9275V38.6311C31.9438 37.1636 38.7438 29.4323 38.745 20.1136Z" fill="black"/>
</svg>
