<svg width="20" height="20" viewBox="0 0 20 20" fill="none" xmlns="http://www.w3.org/2000/svg">
<path d="M17.0833 6.06478L10 10M10 10L2.91664 6.06478M10 10V17.9167M11.6667 17.4074L10.6475 17.9736C10.4112 18.1049 10.293 18.1705 10.1679 18.1963C10.0571 18.2191 9.94292 18.2191 9.83217 18.1963C9.707 18.1705 9.58883 18.1049 9.3525 17.9736L3.18581 14.5477C2.93622 14.409 2.8114 14.3397 2.72053 14.241C2.64013 14.1538 2.57929 14.0504 2.54207 13.9378C2.5 13.8104 2.5 13.6677 2.5 13.3821V6.61786C2.5 6.33233 2.5 6.18956 2.54207 6.06223C2.57929 5.94958 2.64013 5.84618 2.72053 5.75894C2.8114 5.66032 2.93621 5.59099 3.18581 5.45232L9.3525 2.02639C9.58883 1.89509 9.707 1.82944 9.83217 1.8037C9.94292 1.78093 10.0571 1.78093 10.1679 1.8037C10.293 1.82944 10.4112 1.89509 10.6475 2.02639L16.8142 5.45232C17.0638 5.59099 17.1886 5.66032 17.2795 5.75894C17.3598 5.84618 17.4207 5.94958 17.4579 6.06223C17.5 6.18956 17.5 6.33233 17.5 6.61786V10.4167M6.25 3.74999L13.75 7.91665M13.3333 15L15 16.6667L18.3333 13.3333" stroke="black" stroke-linecap="round" stroke-linejoin="round"/>
</svg>
