<svg width="30" height="30" viewBox="0 0 30 30" fill="none" xmlns="http://www.w3.org/2000/svg">
<path d="M14.232 18.498C14.3071 18.4977 14.3796 18.5256 14.4351 18.5761C14.4907 18.6267 14.5253 18.6962 14.532 18.771V23.082C14.5279 23.3128 14.4371 23.5336 14.2775 23.7004C14.1179 23.8671 13.9014 23.9677 13.671 23.982H7.52401C7.29274 23.9779 7.07155 23.8866 6.90468 23.7264C6.73782 23.5662 6.63758 23.3489 6.62401 23.118V18.804C6.62371 18.7289 6.65158 18.6564 6.70213 18.6009C6.75267 18.5453 6.82221 18.5108 6.89701 18.504H14.247L14.232 18.498ZM23.085 18.498C23.1601 18.4977 23.2326 18.5256 23.2881 18.5761C23.3437 18.6267 23.3783 18.6962 23.385 18.771V23.082C23.3809 23.3128 23.2901 23.5336 23.1305 23.7004C22.9709 23.8671 22.7544 23.9677 22.524 23.982H16.377C16.1457 23.9779 15.9245 23.8866 15.7577 23.7264C15.5908 23.5662 15.4906 23.3489 15.477 23.118V18.804C15.4767 18.7289 15.5046 18.6564 15.5551 18.6009C15.6057 18.5453 15.6752 18.5108 15.75 18.504H23.1L23.085 18.498ZM11.877 19.767L11.85 19.8L10.104 21.696L9.31501 20.931C9.27612 20.8918 9.22449 20.8678 9.16945 20.8634C9.11442 20.859 9.05963 20.8745 9.01501 20.907L8.98801 20.931L8.66101 21.231C8.64125 21.2469 8.62495 21.2667 8.61312 21.2891C8.60129 21.3116 8.59417 21.3362 8.5922 21.3615C8.59024 21.3868 8.59346 21.4122 8.60168 21.4362C8.60991 21.4602 8.62295 21.4822 8.64001 21.501L8.66101 21.525L9.78001 22.587C9.86641 22.6723 9.98259 22.7207 10.104 22.722C10.165 22.724 10.2257 22.7131 10.2821 22.6898C10.3385 22.6665 10.3892 22.6315 10.431 22.587L11.373 21.591L11.562 21.39L12.504 20.397C12.5346 20.3594 12.5528 20.3132 12.556 20.2649C12.5592 20.2165 12.5473 20.1683 12.522 20.127L12.504 20.103L12.177 19.803C12.14 19.7614 12.0891 19.7348 12.0338 19.7282C11.9786 19.7215 11.9228 19.7354 11.877 19.767ZM20.73 19.767L20.7 19.8L18.954 21.696L18.162 20.931C18.1238 20.8907 18.072 20.8659 18.0166 20.8615C17.9612 20.857 17.9062 20.8733 17.862 20.907L17.835 20.931L17.508 21.231C17.4883 21.2469 17.472 21.2667 17.4601 21.2891C17.4483 21.3116 17.4412 21.3362 17.4392 21.3615C17.4372 21.3868 17.4405 21.4122 17.4487 21.4362C17.4569 21.4602 17.4699 21.4822 17.487 21.501L17.508 21.525L18.627 22.587C18.713 22.6729 18.8295 22.7214 18.951 22.722C19.012 22.724 19.0727 22.7131 19.1291 22.6898C19.1855 22.6665 19.2362 22.6315 19.278 22.587L20.22 21.591L20.409 21.39L21.351 20.397C21.3816 20.3594 21.3998 20.3132 21.403 20.2649C21.4062 20.2165 21.3943 20.1683 21.369 20.127L21.351 20.103L21.03 19.8C20.9926 19.7589 20.9415 19.7328 20.8863 19.7268C20.831 19.7207 20.7754 19.735 20.73 19.767ZM13.701 15.444C13.9252 15.455 14.1372 15.5495 14.2954 15.7087C14.4536 15.868 14.5466 16.0807 14.556 16.305V17.277C14.5569 17.3489 14.532 17.4188 14.4857 17.4738C14.4395 17.5289 14.375 17.5655 14.304 17.577H6.30001C6.22852 17.5731 6.1608 17.5437 6.10908 17.4941C6.05736 17.4446 6.02506 17.3783 6.01801 17.307V16.359C6.01304 16.133 6.09329 15.9134 6.24281 15.7439C6.39233 15.5744 6.60017 15.4673 6.82501 15.444H13.725H13.701ZM23.145 15.444C23.3692 15.455 23.5812 15.5495 23.7394 15.7087C23.8976 15.868 23.9906 16.0807 24 16.305V17.277C24.0009 17.3489 23.976 17.4188 23.9297 17.4738C23.8835 17.5289 23.819 17.5655 23.748 17.577H15.729C15.6544 17.5774 15.5823 17.5499 15.5268 17.5C15.4713 17.4501 15.4365 17.3813 15.429 17.307V16.359C15.424 16.1335 15.5038 15.9143 15.6527 15.7448C15.8016 15.5754 16.0087 15.468 16.233 15.444H23.133H23.145ZM18.645 9.057C18.7201 9.0567 18.7926 9.08457 18.8481 9.13512C18.9037 9.18566 18.9383 9.2552 18.945 9.33V13.641C18.9447 13.8744 18.8555 14.0989 18.6956 14.2689C18.5356 14.4388 18.3169 14.5415 18.084 14.556H11.952C11.7186 14.5557 11.4941 14.4665 11.3241 14.3066C11.1542 14.1466 11.0515 13.9279 11.037 13.695V9.363C11.0366 9.28837 11.0641 9.21628 11.114 9.16081C11.1639 9.10533 11.2328 9.07046 11.307 9.063H18.66L18.645 9.057ZM16.29 10.323L16.263 10.347L14.517 12.243L13.74 11.475C13.7011 11.4357 13.6492 11.4119 13.594 11.408C13.5388 11.4042 13.484 11.4205 13.44 11.454L13.413 11.475L13.089 11.775C13.0689 11.7906 13.0522 11.8103 13.0401 11.8328C13.028 11.8552 13.0208 11.8799 13.0188 11.9054C13.0168 11.9308 13.0202 11.9563 13.0286 11.9804C13.0371 12.0044 13.0505 12.0264 13.068 12.045L13.089 12.069L14.205 13.128C14.2921 13.2141 14.4095 13.2625 14.532 13.263C14.5925 13.2646 14.6526 13.2534 14.7084 13.2302C14.7643 13.2069 14.8146 13.1721 14.856 13.128L15.798 12.135L15.99 11.934L16.929 10.938C16.9596 10.9004 16.9778 10.8542 16.981 10.8059C16.9842 10.7575 16.9723 10.7093 16.947 10.668L16.929 10.647L16.605 10.347C16.5661 10.3078 16.5145 10.2838 16.4595 10.2794C16.4044 10.275 16.3496 10.2905 16.305 10.323H16.29ZM18.66 6C18.8913 6.00414 19.1125 6.09543 19.2793 6.25562C19.4462 6.41581 19.5464 6.63309 19.56 6.864V7.833C19.5603 7.9081 19.5324 7.98058 19.4819 8.03613C19.4313 8.09167 19.3618 8.12624 19.287 8.133H10.731C10.6559 8.1333 10.5834 8.10543 10.5279 8.05488C10.4723 8.00434 10.4378 7.9348 10.431 7.86V6.918C10.4351 6.68721 10.526 6.46644 10.6855 6.29965C10.8451 6.13286 11.0616 6.0323 11.292 6.018H18.66V6Z" fill="#26B074"/>
</svg>
