<svg width="30" height="30" viewBox="0 0 30 30" fill="none" xmlns="http://www.w3.org/2000/svg">
<g clip-path="url(#clip0_2415_957)">
<path d="M19.2857 0V10.7143H30V0H19.2857ZM27.8571 8.57143H21.4286V2.14286H27.8571V8.57143Z" fill="#323232"/>
<path d="M6.42856 4.28613H4.28571V6.42899H6.42856V4.28613Z" fill="#323232"/>
<path d="M25.7143 4.28613H23.5714V6.42899H25.7143V4.28613Z" fill="#323232"/>
<path d="M17.1428 4.28571H15V2.14286H17.1428V0H12.8571V6.42857H15V8.57143H17.1428V4.28571Z" fill="#323232"/>
<path d="M10.7143 10.7143V0H0V10.7143H2.14286H10.7143ZM2.14286 2.14286H8.57143V8.57143H2.14286V2.14286Z" fill="#323232"/>
<path d="M0 12.8574V17.1431H2.14286V15.0003H4.28571V12.8574H0Z" fill="#323232"/>
<path d="M15 14.9999H17.1428V10.7141H15V8.57129H12.8571V12.857H15V14.9999Z" fill="#323232"/>
<path d="M25.7143 12.8574H23.5714V15.0003H25.7143V12.8574Z" fill="#323232"/>
<path d="M30 12.8574H27.8571V15.0003H30V12.8574Z" fill="#323232"/>
<path d="M21.4286 17.1431V19.286H23.5715V21.4289H25.7143V17.1431H23.5715V15.0003H21.4286V12.8574H19.2857V15.0003H17.1429V17.1431H21.4286Z" fill="#323232"/>
<path d="M27.8572 15H25.7143V17.1429H27.8572V15Z" fill="#323232"/>
<path d="M0 19.2861V30.0004H10.7143V19.2861H0ZM8.57143 27.8576H2.14286V21.429H8.57143V27.8576Z" fill="#323232"/>
<path d="M17.1428 17.1431H15V15.0003H12.8571V12.8574H6.42856V15.0003H4.28571V17.1431H8.57142V15.0003H10.7143V17.1431H12.8571V19.286H15V21.4289H17.1428V17.1431Z" fill="#323232"/>
<path d="M21.4286 19.2861H19.2857V21.429H21.4286V19.2861Z" fill="#323232"/>
<path d="M30 17.1426H27.8571V21.4283H30V17.1426Z" fill="#323232"/>
<path d="M23.5714 21.4287H21.4286V23.5716H23.5714V21.4287Z" fill="#323232"/>
<path d="M27.8572 21.4287H25.7143V23.5716H27.8572V21.4287Z" fill="#323232"/>
<path d="M6.42856 23.5713H4.28571V25.7141H6.42856V23.5713Z" fill="#323232"/>
<path d="M21.4285 25.7144V23.5716H19.2857V21.4287H17.1428V23.5716H15V21.4287H12.8571V25.7144H15V27.8573H17.1428V25.7144H21.4285Z" fill="#323232"/>
<path d="M23.5714 25.7141H21.4286V27.857H23.5714V29.9999H25.7143V23.5713H23.5714V25.7141Z" fill="#323232"/>
<path d="M30 23.5713H27.8571V25.7141H30V23.5713Z" fill="#323232"/>
<path d="M15 27.8574H12.8571V30.0003H15V27.8574Z" fill="#323232"/>
<path d="M21.4286 27.8574H17.1429V30.0003H21.4286V27.8574Z" fill="#323232"/>
<path d="M30 27.8574H27.8571V30.0003H30V27.8574Z" fill="#323232"/>
</g>
<defs>
<clipPath id="clip0_2415_957">
<rect width="30" height="30" fill="white"/>
</clipPath>
</defs>
</svg>
