<svg width="40" height="40" viewBox="0 0 40 40" fill="none" xmlns="http://www.w3.org/2000/svg">
<path d="M30.8333 32.4998H9.16666L4.16666 37.4998V9.1665C4.16666 6.4165 6.41666 4.1665 9.16666 4.1665H30.8333C33.5833 4.1665 35.8333 6.4165 35.8333 9.1665V27.4998C35.8333 30.2498 33.5833 32.4998 30.8333 32.4998Z" fill="#009688"/>
<path d="M17.5 18.3335C17.5 18.9965 17.7634 19.6324 18.2322 20.1013C18.7011 20.5701 19.337 20.8335 20 20.8335C20.663 20.8335 21.2989 20.5701 21.7678 20.1013C22.2366 19.6324 22.5 18.9965 22.5 18.3335C22.5 17.6705 22.2366 17.0346 21.7678 16.5657C21.2989 16.0969 20.663 15.8335 20 15.8335C19.337 15.8335 18.7011 16.0969 18.2322 16.5657C17.7634 17.0346 17.5 17.6705 17.5 18.3335Z" fill="white"/>
<path d="M25.8333 18.3335C25.8333 18.9965 26.0967 19.6324 26.5655 20.1013C27.0344 20.5701 27.6703 20.8335 28.3333 20.8335C28.9964 20.8335 29.6322 20.5701 30.1011 20.1013C30.5699 19.6324 30.8333 18.9965 30.8333 18.3335C30.8333 17.6705 30.5699 17.0346 30.1011 16.5657C29.6322 16.0969 28.9964 15.8335 28.3333 15.8335C27.6703 15.8335 27.0344 16.0969 26.5655 16.5657C26.0967 17.0346 25.8333 17.6705 25.8333 18.3335Z" fill="white"/>
<path d="M9.16666 18.3335C9.16666 18.9965 9.43005 19.6324 9.89889 20.1013C10.3677 20.5701 11.0036 20.8335 11.6667 20.8335C12.3297 20.8335 12.9656 20.5701 13.4344 20.1013C13.9033 19.6324 14.1667 18.9965 14.1667 18.3335C14.1667 17.6705 13.9033 17.0346 13.4344 16.5657C12.9656 16.0969 12.3297 15.8335 11.6667 15.8335C11.0036 15.8335 10.3677 16.0969 9.89889 16.5657C9.43005 17.0346 9.16666 17.6705 9.16666 18.3335Z" fill="white"/>
</svg>
