<svg width="20" height="20" viewBox="0 0 20 20" fill="none" xmlns="http://www.w3.org/2000/svg">
<path d="M2.00001 16.1665V10.4998C2.00001 10.3155 1.85068 10.1665 1.66668 10.1665C1.48268 10.1665 1.33334 10.3155 1.33334 10.4998V16.1665C1.33334 16.3508 1.48268 16.4998 1.66668 16.4998C1.85068 16.4998 2.00001 16.3508 2.00001 16.1665Z" fill="black"/>
<path d="M18.6667 16.1665V10.4998C18.6667 10.3155 18.5173 10.1665 18.3333 10.1665C18.1493 10.1665 18 10.3155 18 10.4998V16.1665C18 16.3508 18.1493 16.4998 18.3333 16.4998C18.5173 16.4998 18.6667 16.3508 18.6667 16.1665Z" fill="black"/>
<path d="M2.99999 10.1665C2.81599 10.1665 2.66666 10.3155 2.66666 10.4998V13.4998C2.66666 13.6842 2.81599 13.8332 2.99999 13.8332C3.18399 13.8332 3.33332 13.6842 3.33332 13.4998V10.4998C3.33332 10.3155 3.18399 10.1665 2.99999 10.1665Z" fill="black"/>
<path d="M3.99999 10.1665C3.81599 10.1665 3.66666 10.3155 3.66666 10.4998V13.4998C3.66666 13.6842 3.81599 13.8332 3.99999 13.8332C4.18399 13.8332 4.33332 13.6842 4.33332 13.4998V10.4998C4.33332 10.3155 4.18399 10.1665 3.99999 10.1665Z" fill="black"/>
<path d="M6.00001 13.4998V10.4998C6.00001 10.3155 5.85068 10.1665 5.66668 10.1665C5.48268 10.1665 5.33334 10.3155 5.33334 10.4998V13.4998C5.33334 13.6842 5.48268 13.8332 5.66668 13.8332C5.85068 13.8332 6.00001 13.6842 6.00001 13.4998Z" fill="black"/>
<path d="M7.00001 13.4998V10.4998C7.00001 10.3155 6.85068 10.1665 6.66668 10.1665C6.48268 10.1665 6.33334 10.3155 6.33334 10.4998V13.4998C6.33334 13.6842 6.48268 13.8332 6.66668 13.8332C6.85068 13.8332 7.00001 13.6842 7.00001 13.4998Z" fill="black"/>
<path d="M8.00001 13.4998V10.4998C8.00001 10.3155 7.85068 10.1665 7.66668 10.1665C7.48268 10.1665 7.33334 10.3155 7.33334 10.4998V13.4998C7.33334 13.6842 7.48268 13.8332 7.66668 13.8332C7.85068 13.8332 8.00001 13.6842 8.00001 13.4998Z" fill="black"/>
<path d="M10 13.4998V10.4998C10 10.3155 9.85068 10.1665 9.66668 10.1665C9.48268 10.1665 9.33334 10.3155 9.33334 10.4998V13.4998C9.33334 13.6842 9.48268 13.8332 9.66668 13.8332C9.85068 13.8332 10 13.6842 10 13.4998Z" fill="black"/>
<path d="M11.6667 10.4998C11.6667 10.3155 11.5173 10.1665 11.3333 10.1665C11.1493 10.1665 11 10.3155 11 10.4998V13.4998C11 13.6842 11.1493 13.8332 11.3333 13.8332C11.5173 13.8332 11.6667 13.6842 11.6667 13.4998V10.4998Z" fill="black"/>
<path d="M12.6667 10.4998C12.6667 10.3155 12.5173 10.1665 12.3333 10.1665C12.1493 10.1665 12 10.3155 12 10.4998V13.4998C12 13.6842 12.1493 13.8332 12.3333 13.8332C12.5173 13.8332 12.6667 13.6842 12.6667 13.4998V10.4998Z" fill="black"/>
<path d="M14 10.1665C13.816 10.1665 13.6667 10.3155 13.6667 10.4998V13.4998C13.6667 13.6842 13.816 13.8332 14 13.8332C14.184 13.8332 14.3333 13.6842 14.3333 13.4998V10.4998C14.3333 10.3155 14.184 10.1665 14 10.1665Z" fill="black"/>
<path d="M15 10.1665C14.816 10.1665 14.6667 10.3155 14.6667 10.4998V13.4998C14.6667 13.6842 14.816 13.8332 15 13.8332C15.184 13.8332 15.3333 13.6842 15.3333 13.4998V10.4998C15.3333 10.3155 15.184 10.1665 15 10.1665Z" fill="black"/>
<path d="M17 13.8332C17.184 13.8332 17.3333 13.6842 17.3333 13.4998V10.4998C17.3333 10.3155 17.184 10.1665 17 10.1665C16.816 10.1665 16.6667 10.3155 16.6667 10.4998V13.4998C16.6667 13.6842 16.816 13.8332 17 13.8332Z" fill="black"/>
<path d="M1.33334 3.83333V8.5C1.33334 8.68433 1.48268 8.83333 1.66668 8.83333C1.85068 8.83333 2.00001 8.68433 2.00001 8.5V3.83333C2.00001 3.649 1.85068 3.5 1.66668 3.5C1.48268 3.5 1.33334 3.649 1.33334 3.83333Z" fill="black"/>
<path d="M18.6667 8.5V3.83333C18.6667 3.649 18.5173 3.5 18.3333 3.5C18.1493 3.5 18 3.649 18 3.83333V8.5C18 8.68433 18.1493 8.83333 18.3333 8.83333C18.5173 8.83333 18.6667 8.68433 18.6667 8.5Z" fill="black"/>
<path d="M2.66666 8.5C2.66666 8.68433 2.81599 8.83333 2.99999 8.83333C3.18399 8.83333 3.33332 8.68433 3.33332 8.5V3.83333C3.33332 3.649 3.18399 3.5 2.99999 3.5C2.81599 3.5 2.66666 3.649 2.66666 3.83333V8.5Z" fill="black"/>
<path d="M3.99999 8.83333C4.18399 8.83333 4.33332 8.68433 4.33332 8.5V3.83333C4.33332 3.649 4.18399 3.5 3.99999 3.5C3.81599 3.5 3.66666 3.649 3.66666 3.83333V8.5C3.66666 8.68433 3.81599 8.83333 3.99999 8.83333Z" fill="black"/>
<path d="M5.66668 8.83333C5.85068 8.83333 6.00001 8.68433 6.00001 8.5V3.83333C6.00001 3.649 5.85068 3.5 5.66668 3.5C5.48268 3.5 5.33334 3.649 5.33334 3.83333V8.5C5.33334 8.68433 5.48268 8.83333 5.66668 8.83333Z" fill="black"/>
<path d="M6.66668 8.83333C6.85068 8.83333 7.00001 8.68433 7.00001 8.5V3.83333C7.00001 3.649 6.85068 3.5 6.66668 3.5C6.48268 3.5 6.33334 3.649 6.33334 3.83333V8.5C6.33334 8.68433 6.48268 8.83333 6.66668 8.83333Z" fill="black"/>
<path d="M7.66668 8.83333C7.85068 8.83333 8.00001 8.68433 8.00001 8.5V3.83333C8.00001 3.649 7.85068 3.5 7.66668 3.5C7.48268 3.5 7.33334 3.649 7.33334 3.83333V8.5C7.33334 8.68433 7.48268 8.83333 7.66668 8.83333Z" fill="black"/>
<path d="M9.66668 8.83333C9.85068 8.83333 10 8.68433 10 8.5V3.83333C10 3.649 9.85068 3.5 9.66668 3.5C9.48268 3.5 9.33334 3.649 9.33334 3.83333V8.5C9.33334 8.68433 9.48268 8.83333 9.66668 8.83333Z" fill="black"/>
<path d="M11.3333 8.83333C11.5173 8.83333 11.6667 8.68433 11.6667 8.5V3.83333C11.6667 3.649 11.5173 3.5 11.3333 3.5C11.1493 3.5 11 3.649 11 3.83333V8.5C11 8.68433 11.1493 8.83333 11.3333 8.83333Z" fill="black"/>
<path d="M12.3333 8.83333C12.5173 8.83333 12.6667 8.68433 12.6667 8.5V3.83333C12.6667 3.649 12.5173 3.5 12.3333 3.5C12.1493 3.5 12 3.649 12 3.83333V8.5C12 8.68433 12.1493 8.83333 12.3333 8.83333Z" fill="black"/>
<path d="M14 8.83333C14.184 8.83333 14.3333 8.68433 14.3333 8.5V3.83333C14.3333 3.649 14.184 3.5 14 3.5C13.816 3.5 13.6667 3.649 13.6667 3.83333V8.5C13.6667 8.68433 13.816 8.83333 14 8.83333Z" fill="black"/>
<path d="M15 8.83333C15.184 8.83333 15.3333 8.68433 15.3333 8.5V3.83333C15.3333 3.649 15.184 3.5 15 3.5C14.816 3.5 14.6667 3.649 14.6667 3.83333V8.5C14.6667 8.68433 14.816 8.83333 15 8.83333Z" fill="black"/>
<path d="M17 8.83333C17.184 8.83333 17.3333 8.68433 17.3333 8.5V3.83333C17.3333 3.649 17.184 3.5 17 3.5C16.816 3.5 16.6667 3.649 16.6667 3.83333V8.5C16.6667 8.68433 16.816 8.83333 17 8.83333Z" fill="black"/>
<path d="M2.99999 14.8335C2.81599 14.8335 2.66666 14.9825 2.66666 15.1668V15.5002C2.66666 15.6845 2.81599 15.8335 2.99999 15.8335C3.18399 15.8335 3.33332 15.6845 3.33332 15.5002V15.1668C3.33332 14.9825 3.18399 14.8335 2.99999 14.8335Z" fill="black"/>
<path d="M3.99999 14.8335C3.81599 14.8335 3.66666 14.9825 3.66666 15.1668V15.5002C3.66666 15.6845 3.81599 15.8335 3.99999 15.8335C4.18399 15.8335 4.33332 15.6845 4.33332 15.5002V15.1668C4.33332 14.9825 4.18399 14.8335 3.99999 14.8335Z" fill="black"/>
<path d="M4.99999 14.8335C4.81599 14.8335 4.66666 14.9825 4.66666 15.1668V15.5002C4.66666 15.6845 4.81599 15.8335 4.99999 15.8335C5.18399 15.8335 5.33332 15.6845 5.33332 15.5002V15.1668C5.33332 14.9825 5.18399 14.8335 4.99999 14.8335Z" fill="black"/>
<path d="M5.99999 14.8335C5.81599 14.8335 5.66666 14.9825 5.66666 15.1668V15.5002C5.66666 15.6845 5.81599 15.8335 5.99999 15.8335C6.18399 15.8335 6.33332 15.6845 6.33332 15.5002V15.1668C6.33332 14.9825 6.18399 14.8335 5.99999 14.8335Z" fill="black"/>
<path d="M6.99999 14.8335C6.81599 14.8335 6.66666 14.9825 6.66666 15.1668V15.5002C6.66666 15.6845 6.81599 15.8335 6.99999 15.8335C7.18399 15.8335 7.33332 15.6845 7.33332 15.5002V15.1668C7.33332 14.9825 7.18399 14.8335 6.99999 14.8335Z" fill="black"/>
<path d="M7.99999 14.8335C7.81599 14.8335 7.66666 14.9825 7.66666 15.1668V15.5002C7.66666 15.6845 7.81599 15.8335 7.99999 15.8335C8.18399 15.8335 8.33332 15.6845 8.33332 15.5002V15.1668C8.33332 14.9825 8.18399 14.8335 7.99999 14.8335Z" fill="black"/>
<path d="M8.99999 14.8335C8.81599 14.8335 8.66666 14.9825 8.66666 15.1668V15.5002C8.66666 15.6845 8.81599 15.8335 8.99999 15.8335C9.18399 15.8335 9.33332 15.6845 9.33332 15.5002V15.1668C9.33332 14.9825 9.18399 14.8335 8.99999 14.8335Z" fill="black"/>
<path d="M9.99999 14.8335C9.81599 14.8335 9.66666 14.9825 9.66666 15.1668V15.5002C9.66666 15.6845 9.81599 15.8335 9.99999 15.8335C10.184 15.8335 10.3333 15.6845 10.3333 15.5002V15.1668C10.3333 14.9825 10.184 14.8335 9.99999 14.8335Z" fill="black"/>
<path d="M11 14.8335C10.816 14.8335 10.6667 14.9825 10.6667 15.1668V15.5002C10.6667 15.6845 10.816 15.8335 11 15.8335C11.184 15.8335 11.3333 15.6845 11.3333 15.5002V15.1668C11.3333 14.9825 11.184 14.8335 11 14.8335Z" fill="black"/>
<path d="M12 14.8335C11.816 14.8335 11.6667 14.9825 11.6667 15.1668V15.5002C11.6667 15.6845 11.816 15.8335 12 15.8335C12.184 15.8335 12.3333 15.6845 12.3333 15.5002V15.1668C12.3333 14.9825 12.184 14.8335 12 14.8335Z" fill="black"/>
<path d="M13 14.8335C12.816 14.8335 12.6667 14.9825 12.6667 15.1668V15.5002C12.6667 15.6845 12.816 15.8335 13 15.8335C13.184 15.8335 13.3333 15.6845 13.3333 15.5002V15.1668C13.3333 14.9825 13.184 14.8335 13 14.8335Z" fill="black"/>
<path d="M14 14.8335C13.816 14.8335 13.6667 14.9825 13.6667 15.1668V15.5002C13.6667 15.6845 13.816 15.8335 14 15.8335C14.184 15.8335 14.3333 15.6845 14.3333 15.5002V15.1668C14.3333 14.9825 14.184 14.8335 14 14.8335Z" fill="black"/>
<path d="M15 14.8335C14.816 14.8335 14.6667 14.9825 14.6667 15.1668V15.5002C14.6667 15.6845 14.816 15.8335 15 15.8335C15.184 15.8335 15.3333 15.6845 15.3333 15.5002V15.1668C15.3333 14.9825 15.184 14.8335 15 14.8335Z" fill="black"/>
<path d="M16 14.8335C15.816 14.8335 15.6667 14.9825 15.6667 15.1668V15.5002C15.6667 15.6845 15.816 15.8335 16 15.8335C16.184 15.8335 16.3333 15.6845 16.3333 15.5002V15.1668C16.3333 14.9825 16.184 14.8335 16 14.8335Z" fill="black"/>
<path d="M17.3333 15.1668C17.3333 14.9825 17.184 14.8335 17 14.8335C16.816 14.8335 16.6667 14.9825 16.6667 15.1668V15.5002C16.6667 15.6845 16.816 15.8335 17 15.8335C17.184 15.8335 17.3333 15.6845 17.3333 15.5002V15.1668Z" fill="black"/>
<path d="M2.66667 17.8335H0.666667V16.1668C0.666667 15.9825 0.517333 15.8335 0.333333 15.8335C0.149333 15.8335 0 15.9825 0 16.1668V18.5002H2.66667C2.85067 18.5002 3 18.3512 3 18.1668C3 17.9825 2.85067 17.8335 2.66667 17.8335Z" fill="black"/>
<path d="M19.6667 15.8335C19.4827 15.8335 19.3333 15.9825 19.3333 16.1668V17.8335H17.6667C17.4827 17.8335 17.3333 17.9825 17.3333 18.1668C17.3333 18.3512 17.4827 18.5002 17.6667 18.5002H20V16.1668C20 15.9825 19.8507 15.8335 19.6667 15.8335Z" fill="black"/>
<path d="M17.3333 1.5C17.1493 1.5 17 1.649 17 1.83333C17 2.01767 17.1493 2.16667 17.3333 2.16667H19.3333V3.83333C19.3333 4.01767 19.4827 4.16667 19.6667 4.16667C19.8507 4.16667 20 4.01767 20 3.83333V1.5H17.3333Z" fill="black"/>
<path d="M0.333333 4.16667C0.517333 4.16667 0.666667 4.01767 0.666667 3.83333V2.16667H2.33333C2.51733 2.16667 2.66667 2.01767 2.66667 1.83333C2.66667 1.649 2.51733 1.5 2.33333 1.5H0V3.83333C0 4.01767 0.149333 4.16667 0.333333 4.16667Z" fill="black"/>
<path d="M19.6667 9.1665H0.333333C0.149333 9.1665 0 9.3155 0 9.49984C0 9.68417 0.149333 9.83317 0.333333 9.83317H19.6667C19.8507 9.83317 20 9.68417 20 9.49984C20 9.3155 19.8507 9.1665 19.6667 9.1665Z" fill="black"/>
</svg>
