<svg width="27" height="27" viewBox="0 0 27 27" fill="none" xmlns="http://www.w3.org/2000/svg">
<path d="M27 7.29495V20.4787C27 21.1931 26.4158 21.7736 25.7051 21.7736H1.29495C1.17962 21.7736 1.06423 21.7588 0.956338 21.7253C0.517271 21.61 0.167484 21.2602 0.0484102 20.8174C0.0148711 20.7094 0 20.5977 0 20.4786V7.29495C0 6.58419 0.584191 6 1.29495 6H25.7051C25.7646 6 25.8242 6.00374 25.8837 6.01487C26.453 6.09302 26.907 6.54701 26.9852 7.11633C26.9963 7.17587 27 7.23541 27 7.29495Z" fill="white"/>
<path d="M5.35818 18.5326C5.32844 18.4656 5.28746 18.4061 5.23911 18.3614C5.187 18.3131 5.13116 18.2795 5.06793 18.2535C5.0047 18.2274 4.93773 18.2162 4.8707 18.2162C4.84471 18.2162 4.81865 18.2162 4.7963 18.22C4.77024 18.2237 4.74419 18.2311 4.71814 18.2386L5.13865 17.4795H4.73676L4.30887 18.2758C4.26421 18.3614 4.22328 18.4432 4.1898 18.5214C4.15631 18.5995 4.1377 18.6814 4.1377 18.7669C4.1377 18.8562 4.15631 18.9381 4.18605 19.0088C4.21954 19.0796 4.26415 19.139 4.32 19.1875C4.37954 19.2358 4.44651 19.273 4.52092 19.2991C4.59907 19.3214 4.68096 19.3363 4.77024 19.3363C4.85952 19.3363 4.94142 19.3214 5.01957 19.2953C5.09772 19.2693 5.1647 19.2321 5.22049 19.1837C5.27634 19.1354 5.32095 19.0758 5.35449 19.0051C5.38423 18.9344 5.40285 18.8525 5.40285 18.7595C5.4029 18.6777 5.38797 18.5996 5.35818 18.5326ZM4.96009 18.9642C4.90799 19.0089 4.84476 19.0312 4.7703 19.0312C4.69589 19.0312 4.63261 19.0089 4.58425 18.9642C4.53215 18.9159 4.50984 18.8489 4.50984 18.7633C4.50984 18.6777 4.53215 18.6107 4.58425 18.566C4.63261 18.5177 4.69589 18.4953 4.7703 18.4953C4.84845 18.4953 4.91542 18.5176 4.96009 18.566C5.00845 18.6144 5.0308 18.6814 5.0308 18.7633C5.03075 18.8489 5.00845 18.9159 4.96009 18.9642Z" fill="#26B074"/>
<path d="M6.67918 17.4795L6.26611 17.8032V18.1679L6.67918 17.8404V19.3214H7.04758V17.4795H6.67918Z" fill="#26B074"/>
<path d="M9.217 18.7409V18.3985H8.85978V18.7409H8.43558L9.13141 17.4795H8.72583L8.03369 18.7409V19.0572H8.85978V19.3214H9.217V19.0572H9.3993V18.7409H9.217Z" fill="#26B074"/>
<path d="M11.0962 18.4211C11.1334 18.3839 11.1631 18.3504 11.1892 18.3169C11.2189 18.2871 11.2413 18.2536 11.2599 18.2202C11.2748 18.1867 11.2897 18.1532 11.3008 18.1197C11.3083 18.0825 11.3157 18.0453 11.3157 18.0006C11.3157 17.915 11.2971 17.8406 11.2673 17.7737C11.2376 17.7104 11.1966 17.6546 11.1408 17.6062C11.0887 17.5616 11.0218 17.5281 10.9474 17.5021C10.8729 17.476 10.7874 17.4648 10.698 17.4648C10.6124 17.4648 10.5306 17.476 10.4561 17.4983C10.3817 17.5244 10.3147 17.5579 10.2589 17.6062C10.2031 17.6509 10.1621 17.7104 10.1287 17.7737C10.0989 17.8406 10.084 17.9188 10.084 18.0006H10.4524C10.4524 17.956 10.4598 17.9188 10.4747 17.889C10.4896 17.8592 10.5082 17.8331 10.5305 17.8183C10.5528 17.7997 10.5826 17.7848 10.6087 17.7773C10.6384 17.7699 10.6682 17.7662 10.698 17.7662C10.7798 17.7662 10.8394 17.7885 10.8803 17.8294C10.925 17.8704 10.9436 17.9262 10.9436 17.9968C10.9436 18.0378 10.9361 18.0787 10.9212 18.1085C10.9026 18.142 10.8766 18.1792 10.8394 18.2201L10.084 19.0164V19.3215H11.3157V19.0164H10.5305L11.0962 18.4211Z" fill="#26B074"/>
<path d="M13.2582 18.4432C13.2396 18.3576 13.1875 18.2795 13.1093 18.2088C13.0684 18.1716 13.0163 18.1418 12.953 18.1195C12.8898 18.0935 12.8153 18.0824 12.7297 18.0824C12.6628 18.0824 12.5995 18.0935 12.5474 18.1121C12.4916 18.1307 12.4507 18.153 12.4247 18.1754V17.7809H13.2433V17.4795H12.0898V18.5177H12.4284C12.4433 18.4804 12.4656 18.447 12.5028 18.4172C12.54 18.3837 12.5958 18.3689 12.6739 18.3689C12.7632 18.3689 12.8302 18.3987 12.8637 18.4544C12.9009 18.5102 12.9195 18.5921 12.9195 18.7C12.9195 18.7596 12.9158 18.8117 12.9047 18.86C12.8935 18.9047 12.8749 18.9456 12.8414 18.9717C12.7968 19.0126 12.7372 19.0312 12.6665 19.0312C12.5884 19.0312 12.5288 19.0126 12.4916 18.9717C12.4507 18.9344 12.4284 18.8786 12.4172 18.8042H12.0488C12.0526 18.8712 12.0674 18.9382 12.086 19.0052C12.1083 19.0684 12.1492 19.1317 12.2125 19.1875C12.2572 19.2284 12.3167 19.2619 12.3911 19.2917C12.4693 19.3215 12.5586 19.3364 12.6665 19.3364C12.7707 19.3364 12.8599 19.3215 12.9344 19.2917C13.0051 19.2619 13.0646 19.2284 13.113 19.1838C13.1837 19.1168 13.2321 19.0461 13.2581 18.968C13.2804 18.8936 13.2916 18.8042 13.2916 18.7C13.2917 18.6107 13.2805 18.5251 13.2582 18.4432Z" fill="#26B074"/>
<path d="M15.2117 18.5326C15.182 18.4656 15.141 18.4061 15.0927 18.3614C15.0406 18.3131 14.9848 18.2795 14.9215 18.2535C14.8583 18.2274 14.7913 18.2162 14.7243 18.2162C14.6982 18.2162 14.6722 18.2162 14.6499 18.22C14.6238 18.2237 14.5978 18.2311 14.5717 18.2386L14.9922 17.4795H14.5903L14.1624 18.2758C14.1177 18.3614 14.0768 18.4432 14.0433 18.5214C14.0098 18.5995 13.9912 18.6814 13.9912 18.7669C13.9912 18.8562 14.0098 18.9381 14.0396 19.0088C14.0731 19.0796 14.1177 19.139 14.1735 19.1875C14.2331 19.2358 14.3 19.273 14.3745 19.2991C14.4526 19.3214 14.5345 19.3363 14.6238 19.3363C14.7131 19.3363 14.795 19.3214 14.8731 19.2953C14.9513 19.2693 15.0183 19.2321 15.0741 19.1837C15.1299 19.1354 15.1746 19.0758 15.2081 19.0051C15.2379 18.9344 15.2564 18.8525 15.2564 18.7595C15.2564 18.6777 15.2415 18.5996 15.2117 18.5326ZM14.8136 18.9642C14.7614 19.0089 14.6982 19.0312 14.6238 19.0312C14.5494 19.0312 14.4861 19.0089 14.4377 18.9642C14.3856 18.9159 14.3633 18.8489 14.3633 18.7633C14.3633 18.6777 14.3856 18.6107 14.4377 18.566C14.4861 18.5177 14.5494 18.4953 14.6238 18.4953C14.7057 18.4953 14.7689 18.5176 14.8136 18.566C14.8619 18.6144 14.8843 18.6814 14.8843 18.7633C14.8843 18.8489 14.862 18.9159 14.8136 18.9642Z" fill="#26B074"/>
<path d="M17.2249 18.6332C17.21 18.5923 17.1877 18.555 17.1617 18.5215C17.1356 18.488 17.1096 18.4583 17.0798 18.4323C17.05 18.4099 17.0202 18.3876 16.9942 18.3727C17.0165 18.3541 17.0425 18.3355 17.0723 18.3132C17.0984 18.2871 17.1244 18.2611 17.1467 18.2276C17.1654 18.1979 17.1839 18.1644 17.1988 18.1234C17.2138 18.0825 17.2211 18.0379 17.2211 17.9895C17.2211 17.9076 17.2025 17.8332 17.169 17.77C17.1393 17.7067 17.0946 17.6509 17.0388 17.6062C16.983 17.5579 16.916 17.5244 16.8416 17.4983C16.7672 17.476 16.6853 17.4648 16.5997 17.4648C16.5141 17.4648 16.4359 17.476 16.3615 17.4983C16.2871 17.5244 16.2201 17.5579 16.1643 17.6062C16.1048 17.6509 16.0601 17.7067 16.0266 17.77C15.9931 17.8332 15.9783 17.9077 15.9783 17.9895C15.9783 18.0379 15.9857 18.0825 16.0006 18.1234C16.0117 18.1644 16.0304 18.1979 16.0527 18.2276C16.075 18.2611 16.0973 18.2871 16.1271 18.3132C16.1531 18.3355 16.1792 18.3541 16.2052 18.3727C16.1754 18.3876 16.1494 18.4099 16.1196 18.4323C16.0898 18.4583 16.0638 18.488 16.0377 18.5215C16.0117 18.555 15.9931 18.5923 15.9782 18.6332C15.9596 18.6778 15.9521 18.7262 15.9521 18.7857C15.9521 18.8751 15.9708 18.9532 16.0043 19.0201C16.0377 19.0909 16.0824 19.1466 16.1419 19.1951C16.2015 19.2397 16.2685 19.2769 16.3503 19.2993C16.4284 19.3216 16.5103 19.3365 16.5996 19.3365C16.689 19.3365 16.7745 19.3216 16.8526 19.2993C16.9308 19.277 17.0015 19.2397 17.0573 19.1951C17.1168 19.1467 17.1653 19.0909 17.1987 19.0201C17.2322 18.9532 17.2508 18.875 17.2508 18.7857C17.2509 18.7262 17.2398 18.6778 17.2249 18.6332ZM16.4211 17.8331C16.4695 17.7885 16.529 17.7662 16.5997 17.7662C16.6741 17.7662 16.7337 17.7885 16.7783 17.8331C16.8267 17.8778 16.8527 17.9336 16.8527 18.0006C16.8527 18.0675 16.8267 18.1234 16.7783 18.1643C16.7337 18.209 16.6741 18.2313 16.5997 18.2313C16.529 18.2313 16.4695 18.209 16.4211 18.1643C16.3728 18.1234 16.3467 18.0675 16.3467 18.0006C16.3467 17.9336 16.3728 17.8778 16.4211 17.8331ZM16.8007 18.9607C16.7449 19.009 16.6816 19.0314 16.5998 19.0314C16.5216 19.0314 16.4547 19.0091 16.4026 18.9607C16.3467 18.9123 16.3207 18.8527 16.3207 18.7783C16.3207 18.7076 16.3467 18.648 16.4026 18.596C16.4547 18.5476 16.5216 18.5253 16.5998 18.5253C16.6817 18.5253 16.7449 18.5476 16.8007 18.596C16.8528 18.6481 16.8789 18.7076 16.8789 18.7783C16.8788 18.8527 16.8527 18.9122 16.8007 18.9607Z" fill="#26B074"/>
<path d="M17.939 17.4795V18.0712H18.2924V17.7809H18.8283L18.1697 19.3214H18.5715L19.2264 17.7809V17.4795L17.939 17.4795Z" fill="#26B074"/>
<path d="M21.1281 17.7886C21.0946 17.7179 21.0499 17.6583 20.9941 17.61C20.9384 17.5616 20.8713 17.5281 20.7932 17.5021C20.7151 17.476 20.6332 17.4648 20.5439 17.4648C20.4546 17.4648 20.3727 17.476 20.2946 17.5021C20.2202 17.5281 20.1532 17.5653 20.0937 17.6137C20.0378 17.6658 19.9932 17.7254 19.9634 17.7961C19.9299 17.8668 19.915 17.9486 19.915 18.038C19.915 18.1235 19.9299 18.2016 19.9597 18.2687C19.9894 18.3356 20.0304 18.3914 20.0788 18.4399C20.1271 18.4845 20.183 18.5217 20.25 18.5441C20.3132 18.5701 20.3802 18.585 20.4472 18.585C20.4732 18.585 20.4993 18.5812 20.5253 18.5775C20.5476 18.5738 20.5737 18.5701 20.5997 18.5589L20.1792 19.3217H20.5774L21.009 18.5254C21.0537 18.4399 21.0946 18.358 21.1281 18.2799C21.1579 18.198 21.1764 18.1161 21.1764 18.0343C21.1765 17.9412 21.1616 17.8593 21.1281 17.7886ZM20.7337 18.2351C20.6816 18.2798 20.622 18.3059 20.5439 18.3059C20.4657 18.3059 20.4025 18.2798 20.3542 18.2314C20.3058 18.1831 20.2834 18.1198 20.2834 18.0342C20.2834 17.9486 20.3095 17.8817 20.3578 17.837C20.4062 17.7886 20.4695 17.7663 20.5439 17.7663C20.622 17.7663 20.6816 17.7886 20.7337 17.837C20.782 17.8817 20.8081 17.9486 20.8081 18.0342C20.8081 18.1198 20.782 18.1868 20.7337 18.2351Z" fill="#26B074"/>
<path d="M22.3301 17.4795L21.917 17.8032V18.1679L22.3301 17.8404V19.3214H22.7022V17.4795H22.3301Z" fill="#26B074"/>
<path d="M25.4442 8.1084H24.1299V19.6665H25.4442V8.1084Z" fill="#26B074"/>
<path d="M2.87002 8.1084H1.55566V19.6665H2.87002V8.1084Z" fill="#26B074"/>
<path d="M4.51507 8.1084H3.88184V16.2867H4.51507V8.1084Z" fill="#26B074"/>
<path d="M7.94922 8.1084H7.62158V16.2867H7.94922V8.1084Z" fill="#26B074"/>
<path d="M12.0088 8.1084H10.748V16.2867H12.0088V8.1084Z" fill="#26B074"/>
<path d="M9.83661 8.1084H9.12744V16.2867H9.83661V8.1084Z" fill="#26B074"/>
<path d="M18.8339 8.1084H18.543V16.2867H18.8339V8.1084Z" fill="#26B074"/>
<path d="M21.0811 8.1084H20.0264V16.2867H21.0811V8.1084Z" fill="#26B074"/>
<path d="M13.5427 8.1084H12.73V16.2867H13.5427V8.1084Z" fill="#26B074"/>
<path d="M17.5067 8.1084H15.894V16.2867H17.5067V8.1084Z" fill="#26B074"/>
<path d="M15.1074 8.1084H14.1133V16.2867H15.1074V8.1084Z" fill="#26B074"/>
<path d="M22.9362 8.1084H22.2632V16.2867H22.9362V8.1084Z" fill="#26B074"/>
<path d="M6.62004 8.1084H5.15771V16.2867H6.62004V8.1084Z" fill="#26B074"/>
</svg>
