<svg width="20" height="20" viewBox="0 0 20 20" fill="none" xmlns="http://www.w3.org/2000/svg">
<path d="M19.9412 16.25H13.75V17.5H19.9412V16.25Z" fill="#0080A9"/>
<path fill-rule="evenodd" clip-rule="evenodd" d="M17.805 6.35493H15.395L14.1013 1.80868C13.9125 1.41243 13.4438 1.25243 13.0538 1.45118L12.965 1.49618C12.5763 1.69618 12.415 2.17868 12.6038 2.57493L13.53 6.35368H5.21254L6.17254 2.57993C6.36504 2.18743 6.20629 1.70243 5.82129 1.49868L5.73379 1.45368C5.34504 1.25118 4.87379 1.40618 4.68129 1.79993L3.34004 6.35368H0.977539C0.477539 6.35368 0.0712891 6.73118 0.0712891 7.19368C0.0712891 7.19368 0.476289 8.71868 0.977539 8.71868H1.77254L2.33379 17.0649C2.33379 17.0649 2.39879 18.7012 4.97504 18.7012H12.4613V16.1174C12.42 16.0199 12.395 15.9137 12.395 15.7987V10.6037C12.395 10.1812 12.6988 9.83993 13.0763 9.83993H13.1025C13.4788 9.83993 13.785 10.1812 13.785 10.6037V14.9612H16.5063L16.8475 8.71993H17.805C18.305 8.71993 18.7113 7.19493 18.7113 7.19493C18.7113 6.73243 18.3063 6.35493 17.805 6.35493ZM3.78879 8.78868H2.46129V7.46118H3.78879V8.78868ZM6.32754 15.9274C6.32754 16.3649 6.01379 16.7187 5.62879 16.7187H5.60004C5.21129 16.7187 4.89879 16.3649 4.89879 15.9274V10.5162C4.89879 10.0787 5.21129 9.72618 5.60004 9.72618H5.62879C6.01379 9.72618 6.32754 10.0787 6.32754 10.5162V15.9274ZM10.0763 15.6837C10.0763 16.1012 9.77129 16.4399 9.39629 16.4399H9.36879C8.99129 16.4399 8.68754 16.1012 8.68754 15.6837V10.5599C8.68754 10.1424 8.99129 9.80493 9.36879 9.80493H9.39629C9.77129 9.80493 10.0763 10.1437 10.0763 10.5599V15.6837ZM16.2888 8.82743H14.9213V7.45993H16.2888V8.82743Z" fill="#0080A9"/>
</svg>
