<svg width="40" height="40" viewBox="0 0 40 40" fill="none" xmlns="http://www.w3.org/2000/svg">
<g clip-path="url(#clip0_3062_1008)">
<path d="M0.3125 36.125V8.875H39.6875V32.6137C39.6862 34.5519 38.1156 36.1231 36.1775 36.125H0.3125Z" fill="white"/>
<path d="M39.375 9.1875V32.6137C39.3737 34.3794 37.9437 35.8106 36.1781 35.8125H0.625V9.1875H39.375ZM40 8.5625H0V36.4375H36.1781C38.2887 36.4375 40 34.7262 40 32.6156C40 32.615 40 32.6144 40 32.6137V8.5625Z" fill="#AAC1CE"/>
<path d="M2.49375 3.5625H37.5062C38.8837 3.5625 40 4.67875 40 6.05625C40 6.05687 40 6.0575 40 6.05813V8.5725H1.04939e-06V6.05813C-0.00124895 4.68062 1.11438 3.56375 2.49188 3.5625C2.4925 3.5625 2.49313 3.5625 2.49375 3.5625Z" fill="#25B6D2"/>
<g opacity="0.7">
<path d="M3.4525 6.76622C3.83772 6.76622 4.15 6.45393 4.15 6.06872C4.15 5.6835 3.83772 5.37122 3.4525 5.37122C3.06729 5.37122 2.755 5.6835 2.755 6.06872C2.755 6.45393 3.06729 6.76622 3.4525 6.76622Z" fill="white"/>
</g>
<g opacity="0.7">
<path d="M5.54436 6.76622C5.92958 6.76622 6.24186 6.45393 6.24186 6.06872C6.24186 5.6835 5.92958 5.37122 5.54436 5.37122C5.15914 5.37122 4.84686 5.6835 4.84686 6.06872C4.84686 6.45393 5.15914 6.76622 5.54436 6.76622Z" fill="white"/>
</g>
<g opacity="0.7">
<path d="M7.63561 6.76622C8.02083 6.76622 8.33311 6.45393 8.33311 6.06872C8.33311 5.6835 8.02083 5.37122 7.63561 5.37122C7.25039 5.37122 6.93811 5.6835 6.93811 6.06872C6.93811 6.45393 7.25039 6.76622 7.63561 6.76622Z" fill="white"/>
</g>
<path d="M36.01 7.29374H11.1787L12.4287 4.84436H36.01V7.29374Z" fill="white"/>
<path d="M13.4313 5.57874L13.5338 6.02374C13.5556 6.12811 13.5775 6.23499 13.5963 6.34186H13.6C13.62 6.23499 13.6525 6.12624 13.6806 6.02561L13.8056 5.57874H14.0069L14.1319 6.01624C14.1619 6.13061 14.1881 6.23749 14.21 6.34374H14.2144C14.23 6.23686 14.2531 6.12999 14.2769 6.01624L14.3856 5.57874H14.6288L14.3213 6.55874H14.0919L13.975 6.15999C13.945 6.05749 13.92 5.95311 13.9006 5.84749H13.8963C13.8781 5.95311 13.8531 6.05749 13.8219 6.15999L13.6969 6.55874H13.4656L13.1756 5.57874H13.4313Z" fill="#415E72"/>
<path d="M15.0213 5.57874L15.1238 6.02374C15.1456 6.12811 15.1675 6.23499 15.1863 6.34186H15.1875C15.2069 6.23499 15.2394 6.12624 15.2675 6.02561L15.3925 5.57874H15.5938L15.7188 6.01624C15.7488 6.13061 15.775 6.23749 15.7969 6.34374H15.8013C15.8169 6.23686 15.84 6.12999 15.8638 6.01624L15.9725 5.57874H16.2163L15.9081 6.55874H15.6788L15.5619 6.15999C15.5319 6.05749 15.5069 5.95311 15.4875 5.84749C15.4694 5.95311 15.4444 6.05749 15.4131 6.15999L15.2881 6.55874H15.0569L14.7669 5.57874H15.0213Z" fill="#415E72"/>
<path d="M16.6112 5.57874L16.7137 6.02374C16.7356 6.12811 16.7575 6.23499 16.7762 6.34186H16.78C16.8 6.23499 16.8325 6.12624 16.8606 6.02561L16.9856 5.57874H17.1875L17.3125 6.01624C17.3425 6.13061 17.3687 6.23749 17.3906 6.34374H17.395C17.4106 6.23686 17.4337 6.12999 17.4575 6.01624L17.5662 5.57874H17.8125L17.5 6.55874H17.2706L17.1537 6.15999C17.1237 6.05749 17.0987 5.95311 17.0794 5.84749H17.075C17.0569 5.95311 17.0319 6.05749 17.0006 6.15999L16.8756 6.55874H16.6444L16.3544 5.57874H16.6112Z" fill="#415E72"/>
<path d="M17.9006 6.42183C17.8963 6.3387 17.96 6.26745 18.0438 6.26245C18.0469 6.26245 18.0506 6.26245 18.0538 6.26245C18.1419 6.26808 18.2081 6.3437 18.2031 6.4312C18.1981 6.5112 18.1344 6.57495 18.0538 6.58058C17.9706 6.58183 17.9019 6.51558 17.9006 6.43245C17.9006 6.42933 17.9006 6.42558 17.9006 6.42183Z" fill="#415E72"/>
<path d="M34.7175 5.91248H33.0325V6.22498H34.7175V5.91248Z" fill="#E04F5F"/>
<path d="M34.2375 6.9212L34.0162 6.70058L34.6487 6.0687L34.0162 5.4362L34.2375 5.21558L35.0906 6.0687L34.2375 6.9212Z" fill="#E04F5F"/>
<path d="M32.3787 15.6469V23.3619H7.62125V15.6469H32.3787ZM33.0037 15.0219H6.99625V23.9869H33.0037V15.0219Z" fill="#25B6D2"/>
<path d="M11.7444 21.9588L11.5675 17.3625H12.5563L12.5631 19.4082C12.5563 19.9607 12.55 20.4857 12.5356 20.8944H12.5494C12.7063 20.4444 12.8763 19.9807 13.0875 19.4219L13.9125 17.3625H14.99L14.9769 19.415C14.97 19.9675 14.9563 20.4238 14.9363 20.8744H14.9494C15.1063 20.3969 15.2763 19.8988 15.4544 19.4082L16.25 17.3625H17.2813L15.2563 21.9588H14.1875L14.1531 20.07C14.1531 19.5319 14.1663 19.07 14.1938 18.5494H14.1806C14.01 19.0407 13.8531 19.5313 13.6213 20.0975L12.8369 21.9594L11.7444 21.9588Z" fill="#E04F5F"/>
<path d="M17.6344 21.9588L17.4575 17.3625H18.4463L18.4531 19.4082C18.4463 19.9607 18.44 20.4857 18.4256 20.8944H18.4375C18.5944 20.4444 18.7644 19.9807 18.9756 19.4219L19.8006 17.3625H20.8781L20.865 19.415C20.8581 19.9675 20.8444 20.4238 20.8244 20.8744H20.8375C20.9944 20.3969 21.1644 19.8988 21.3425 19.4082L22.14 17.3625H23.1694L21.1444 21.9588H20.0763L20.0419 20.07C20.0419 19.5319 20.055 19.07 20.0825 18.5494H20.0694C19.8988 19.0407 19.7419 19.5313 19.51 20.0975L18.7256 21.9594L17.6344 21.9588Z" fill="#E04F5F"/>
<path d="M23.525 21.9588L23.3481 17.3625H24.3369L24.3438 19.4082C24.3369 19.9607 24.3306 20.4857 24.3163 20.8944H24.33C24.4869 20.4444 24.6569 19.9807 24.8681 19.4219L25.6931 17.3625H26.7706L26.7575 19.415C26.7506 19.9675 26.7369 20.4238 26.7169 20.8744H26.73C26.8869 20.3969 27.0569 19.8988 27.235 19.4082L28.0325 17.3625H29.0625L27.0375 21.9588H25.9669L25.9325 20.07C25.9325 19.5319 25.9456 19.07 25.9731 18.5494H25.96C25.7894 19.0407 25.6325 19.5313 25.4006 20.0975L24.6163 21.9594L23.525 21.9588Z" fill="#E04F5F"/>
<path d="M22.8163 28.2287L21.1568 29.8882L25.0679 33.7993L26.7274 32.1398L22.8163 28.2287Z" fill="#415E72"/>
<path d="M19.5006 31.6325L18.4275 25.5969L24.4625 26.67L19.5006 31.6325Z" fill="#415E72"/>
</g>
<defs>
<clipPath id="clip0_3062_1008">
<rect width="40" height="40" fill="white"/>
</clipPath>
</defs>
</svg>
