<svg width="50" height="50" viewBox="0 0 50 50" fill="none" xmlns="http://www.w3.org/2000/svg">
<path d="M36.9536 0H13.0462C8.42075 0 4.65845 3.7623 4.65845 8.38779V41.6121C4.65845 46.2369 8.42075 50 13.0463 50H29.6596H30.9452L31.8552 49.0907L44.4322 36.5137L45.3415 35.6037V34.3166V8.38779C45.3415 3.7623 41.5792 0 36.9536 0ZM42.2358 34.3166H34.061C31.6295 34.3166 29.6594 36.2882 29.6594 38.7188V46.8943H13.0461C10.1293 46.8943 7.76392 44.5296 7.76392 41.6121V8.38779C7.76392 5.47031 10.1294 3.10557 13.0461 3.10557H36.9535C39.8717 3.10557 42.2357 5.47031 42.2357 8.38779V34.3166H42.2358Z" fill="black"/>
<path d="M16.0508 12.3945H13.0543V15.2541H16.0508V12.3945Z" fill="black"/>
<path d="M16.0508 19.3555H13.0543V22.2145H16.0508V19.3555Z" fill="black"/>
<path d="M16.0508 26.3164H13.0543V29.1754H16.0508V26.3164Z" fill="black"/>
<path d="M16.0508 33.2773H13.0543V36.1362H16.0508V33.2773Z" fill="black"/>
<path d="M36.9463 12.3945H19.2832V15.2541H36.9463V12.3945Z" fill="black"/>
<path d="M36.9463 19.3555H19.2832V22.2145H36.9463V19.3555Z" fill="black"/>
<path d="M36.9463 26.3164H19.2832V29.1754H36.9463V26.3164Z" fill="black"/>
<path d="M26.5429 33.2773H19.2832V36.1362H26.5429V33.2773Z" fill="black"/>
</svg>
