<svg width="20" height="20" viewBox="0 0 20 20" fill="none" xmlns="http://www.w3.org/2000/svg">
<path fill-rule="evenodd" clip-rule="evenodd" d="M18.3332 10.0003C18.3332 14.6027 14.6022 18.3337 9.99984 18.3337C5.39746 18.3337 1.6665 14.6027 1.6665 10.0003C1.6665 5.39795 5.39746 1.66699 9.99984 1.66699C14.6022 1.66699 18.3332 5.39795 18.3332 10.0003ZM7.47453 7.47503C7.7186 7.23096 8.11433 7.23096 8.35842 7.47503L9.99984 9.11641L11.6412 7.47505C11.8853 7.23098 12.281 7.23098 12.5251 7.47505C12.7692 7.71913 12.7692 8.11486 12.5251 8.35891L10.8837 10.0003L12.5251 11.6417C12.7692 11.8857 12.7692 12.2815 12.5251 12.5256C12.281 12.7697 11.8853 12.7697 11.6412 12.5256L9.99984 10.8842L8.35842 12.5256C8.11435 12.7697 7.71862 12.7697 7.47455 12.5256C7.23047 12.2815 7.23047 11.8857 7.47455 11.6417L9.11592 10.0003L7.47453 8.35891C7.23045 8.11484 7.23045 7.71911 7.47453 7.47503Z" fill="#184863"/>
</svg>
