<svg width="20" height="20" viewBox="0 0 20 20" fill="none" xmlns="http://www.w3.org/2000/svg">
<path d="M13.125 10.3752C13 10.3752 12.875 10.3752 12.775 10.4002V9.5752C12.775 9.2752 12.55 9.0502 12.25 9.0502H4.87498C4.57498 9.0502 4.34998 9.2752 4.34998 9.5752V12.2002C4.34998 14.5252 6.22498 16.4002 8.54998 16.4002C9.84998 16.4002 11 15.8002 11.775 14.8752C12.175 15.1252 12.625 15.2752 13.1 15.2752C14.45 15.2752 15.55 14.1752 15.55 12.8252C15.575 11.4752 14.5 10.3752 13.125 10.3752ZM8.54998 15.3752C6.79998 15.3752 5.39998 13.9502 5.39998 12.2252V10.1252H11.725V12.2252C11.7 13.9502 10.3 15.3752 8.54998 15.3752ZM13.125 14.2502C12.85 14.2502 12.575 14.1752 12.35 14.0252C12.6 13.4752 12.75 12.8752 12.75 12.2252V11.4752C12.875 11.4502 12.975 11.4252 13.1 11.4252C13.875 11.4252 14.5 12.0502 14.5 12.8252C14.525 13.6252 13.925 14.2502 13.125 14.2502ZM8.14998 6.8002C7.97498 7.0252 8.02498 7.3502 8.24998 7.5252C8.34998 7.6002 8.44998 7.6252 8.54998 7.6252C8.69998 7.6252 8.87498 7.5502 8.97498 7.4252C9.67498 6.4752 9.24998 5.7502 8.97498 5.3252C8.72498 4.9252 8.64998 4.8002 8.94998 4.4502C9.12498 4.2252 9.09998 3.9002 8.87498 3.7252C8.64998 3.5502 8.32498 3.5752 8.14998 3.8002C7.39998 4.7502 7.82498 5.4502 8.09998 5.9002C8.32498 6.2502 8.42498 6.4002 8.14998 6.8002Z" fill="#26B074"/>
</svg>
