<svg width="20" height="20" viewBox="0 0 20 20" fill="none" xmlns="http://www.w3.org/2000/svg">
<path d="M18.3339 10.0876C18.3339 11.7358 17.8451 13.3471 16.9294 14.7175C16.0137 16.088 14.7121 17.1562 13.1894 17.7869C11.6666 18.4177 9.99095 18.5827 8.37437 18.2611C6.75779 17.9396 5.27287 17.1459 4.10739 15.9804C2.9419 14.8149 2.14819 13.33 1.82664 11.7134C1.50508 10.0968 1.67011 8.42121 2.30087 6.89843C2.93163 5.37565 3.99978 4.0741 5.37025 3.15839C6.74071 2.24267 8.35195 1.75391 10.0002 1.75391C11.0946 1.75391 12.1783 1.96946 13.1894 2.38827C14.2004 2.80708 15.1191 3.42093 15.893 4.19479C16.6669 4.96864 17.2807 5.88734 17.6995 6.89843C18.1183 7.90952 18.3339 8.9932 18.3339 10.0876ZM4.54546 10.436H7.46651C7.49061 10.207 7.54843 9.98284 7.63809 9.77075C7.68788 9.6539 7.74702 9.54125 7.81493 9.43391H4.54546C4.45741 9.43446 4.37312 9.46968 4.31086 9.53194C4.2486 9.5942 4.21338 9.67849 4.21282 9.76654V10.1034C4.21338 10.1914 4.2486 10.2757 4.31086 10.338C4.37312 10.4002 4.45741 10.4355 4.54546 10.436ZM15.8823 8.98864C15.882 8.90005 15.8466 8.81518 15.7839 8.75263C15.7211 8.69008 15.6362 8.65496 15.5476 8.65496H14.337C14.0753 7.99709 13.6287 7.4291 13.0511 7.01964C12.4735 6.61017 11.7897 6.37675 11.0823 6.34759H9.01072C8.92231 6.34787 8.83759 6.38311 8.77507 6.44563C8.71256 6.50815 8.67731 6.59286 8.67703 6.68128V7.10654C8.67759 7.19459 8.71281 7.27887 8.77507 7.34113C8.83733 7.4034 8.92162 7.43862 9.00967 7.43917H9.92546L9.9244 7.44022H10.7444C10.8145 7.44022 10.8817 7.46806 10.9312 7.51761C10.9808 7.56716 11.0086 7.63436 11.0086 7.70443C11.0086 7.77451 10.9808 7.84171 10.9312 7.89126C10.8817 7.94081 10.8145 7.96864 10.7444 7.96864H4.98651C4.89828 7.9692 4.81383 8.00457 4.75154 8.06705C4.68925 8.12954 4.65415 8.2141 4.65388 8.30233V8.63917C4.65415 8.7274 4.68925 8.81196 4.75154 8.87444C4.81383 8.93693 4.89828 8.9723 4.98651 8.97285H8.19388C8.53162 8.65346 8.95604 8.44072 9.41404 8.36123C9.87205 8.28175 10.3433 8.33904 10.7689 8.52596C11.1946 8.71287 11.5556 9.02111 11.807 9.41213C12.0584 9.80315 12.1889 10.2596 12.1823 10.7244C12.1756 11.1892 12.0321 11.6417 11.7697 12.0254C11.5072 12.4091 11.1375 12.7069 10.7067 12.8816C10.2759 13.0562 9.80319 13.1001 9.34765 13.0075C8.8921 12.915 8.47394 12.6902 8.14546 12.3613H6.11598C6.02775 12.3616 5.9432 12.3967 5.88071 12.4589C5.81822 12.5212 5.78285 12.6057 5.7823 12.6939V13.0307C5.78257 13.1192 5.81782 13.2039 5.88034 13.2664C5.94286 13.3289 6.02757 13.3642 6.11598 13.3644H12.8465C13.2284 13.3834 13.6079 13.2955 13.9426 13.1107C14.2773 12.9258 14.5539 12.6514 14.7412 12.3181H15.5465C15.6347 12.3178 15.7193 12.2827 15.7818 12.2205C15.8443 12.1582 15.8796 12.0737 15.8802 11.9855L15.8823 8.98864ZM4.98756 11.9002H7.78546C7.72975 11.8069 7.68051 11.7098 7.63809 11.6097C7.54237 11.3829 7.48304 11.1424 7.4623 10.8971H4.98651C4.89846 10.8976 4.81417 10.9328 4.75191 10.9951C4.68965 11.0574 4.65443 11.1416 4.65388 11.2297V11.5665C4.65415 11.6548 4.68925 11.7393 4.75154 11.8018C4.81383 11.8643 4.89933 11.8997 4.98756 11.9002ZM10.0665 9.25285V8.95075C10.0624 8.88725 10.0343 8.8277 9.98782 8.78418C9.94139 8.74067 9.88014 8.71645 9.81651 8.71645C9.75287 8.71645 9.69162 8.74067 9.64519 8.78418C9.59876 8.8277 9.57063 8.88725 9.56651 8.95075V9.24549C9.41856 9.27327 9.27694 9.32785 9.14861 9.40654C9.03059 9.47488 8.93217 9.57248 8.86284 9.68993C8.79352 9.80738 8.75563 9.94071 8.75282 10.0771C8.7549 10.2564 8.81844 10.4295 8.93282 10.5676C9.01636 10.6704 9.12077 10.7544 9.23914 10.8139C9.34216 10.8648 9.45211 10.9003 9.56546 10.9192C9.64962 10.9334 9.73484 10.9404 9.82019 10.9402C9.87673 10.9395 9.93319 10.9448 9.98861 10.956C10.0487 10.9693 10.1068 10.9906 10.1612 11.0192C10.2157 11.0491 10.2644 11.0883 10.3055 11.135C10.3475 11.1832 10.371 11.2447 10.3718 11.3086C10.3718 11.3697 10.3549 11.4507 10.2223 11.5371C10.0961 11.6129 9.95164 11.653 9.8044 11.6529C9.74433 11.6501 9.68453 11.643 9.62546 11.6318C9.56725 11.6194 9.51046 11.601 9.45598 11.5771C9.40235 11.5533 9.3551 11.5173 9.31809 11.4718C9.29666 11.4469 9.27054 11.4265 9.24123 11.4117C9.21191 11.3969 9.17997 11.3881 9.14722 11.3856C9.11448 11.3832 9.08157 11.3872 9.05038 11.3975C9.0192 11.4077 8.99034 11.4241 8.96546 11.4455C8.94057 11.4669 8.92016 11.493 8.90537 11.5223C8.89058 11.5517 8.88171 11.5836 8.87926 11.6164C8.87682 11.6491 8.88085 11.682 8.89112 11.7132C8.9014 11.7444 8.91771 11.7732 8.93914 11.7981C9.02817 11.9043 9.14157 11.9874 9.26967 12.0402C9.35621 12.0779 9.44656 12.1061 9.53914 12.1244L9.56651 12.1286V12.4307C9.56651 12.4971 9.59285 12.5606 9.63973 12.6075C9.68662 12.6544 9.7502 12.6807 9.81651 12.6807C9.88281 12.6807 9.9464 12.6544 9.99328 12.6075C10.0402 12.5606 10.0665 12.4971 10.0665 12.4307V12.1255C10.2181 12.096 10.3629 12.0389 10.4939 11.9571C10.6079 11.8913 10.7027 11.7968 10.769 11.6831C10.8353 11.5693 10.8707 11.4403 10.8718 11.3086C10.8717 11.1232 10.8044 10.944 10.6823 10.8044C10.6006 10.7117 10.5029 10.6343 10.3939 10.576C10.2994 10.5269 10.1989 10.4904 10.0949 10.4676C10.0046 10.4485 9.91252 10.439 9.82019 10.4392C9.76202 10.4395 9.70391 10.4349 9.64651 10.4255C9.58258 10.4148 9.52053 10.395 9.4623 10.3665C9.40794 10.3388 9.35991 10.3001 9.32124 10.2529C9.27952 10.2035 9.25544 10.1416 9.25282 10.0771C9.25565 10.0251 9.27225 9.97476 9.30092 9.93129C9.32959 9.88783 9.3693 9.85276 9.41598 9.8297C9.53963 9.75663 9.68078 9.71843 9.8244 9.71917C9.87346 9.7228 9.92208 9.73091 9.96967 9.74338L9.98651 9.74759C10.0459 9.76178 10.1037 9.78189 10.1591 9.80759C10.2127 9.83169 10.2616 9.8652 10.3034 9.90654C10.3503 9.95344 10.4139 9.97979 10.4802 9.97979C10.5465 9.97979 10.6101 9.95344 10.657 9.90654C10.7039 9.85964 10.7303 9.79602 10.7303 9.7297C10.7303 9.66337 10.7039 9.59976 10.657 9.55285C10.5722 9.46922 10.4731 9.40148 10.3644 9.35285C10.2774 9.3119 10.1864 9.28015 10.0928 9.25812L10.076 9.25496L10.0665 9.25285Z" fill="black"/>
</svg>
