<svg width="20" height="20" viewBox="0 0 20 20" fill="none" xmlns="http://www.w3.org/2000/svg">
<g clip-path="url(#clip0_3488_1146)">
<path d="M10 10H2.5V11.25H10V10Z" fill="#0080A9"/>
<path d="M7.5 6.875H1.25V8.125H7.5V6.875Z" fill="#0080A9"/>
<path d="M18.6992 10.379L16.8242 6.004C16.7762 5.89149 16.6961 5.79558 16.594 5.72819C16.4919 5.66081 16.3722 5.62493 16.2499 5.625H14.3749V4.375C14.3749 4.20924 14.3091 4.05027 14.1918 3.93306C14.0746 3.81585 13.9157 3.75 13.7499 3.75H3.74991V5H13.1249V12.8476C12.8401 13.013 12.5909 13.2331 12.3916 13.4952C12.1923 13.7574 12.0469 14.0564 11.9637 14.375H8.03609C7.88397 13.7858 7.5222 13.2724 7.01859 12.9309C6.51498 12.5894 5.9041 12.4433 5.30047 12.5199C4.69683 12.5966 4.14188 12.8908 3.73964 13.3474C3.3374 13.8039 3.11548 14.3915 3.11548 15C3.11548 15.6085 3.3374 16.1961 3.73964 16.6526C4.14188 17.1092 4.69683 17.4034 5.30047 17.4801C5.9041 17.5567 6.51498 17.4106 7.01859 17.0691C7.5222 16.7276 7.88397 16.2142 8.03609 15.625H11.9637C12.1 16.1611 12.4111 16.6365 12.8477 16.976C13.2844 17.3156 13.8218 17.4999 14.3749 17.4999C14.9281 17.4999 15.4654 17.3156 15.9021 16.976C16.3388 16.6365 16.6498 16.1611 16.7861 15.625H18.1249C18.2907 15.625 18.4496 15.5592 18.5668 15.4419C18.6841 15.3247 18.7499 15.1658 18.7499 15V10.625C18.7499 10.5404 18.7326 10.4567 18.6992 10.379ZM5.62491 16.25C5.37768 16.25 5.136 16.1767 4.93044 16.0393C4.72488 15.902 4.56467 15.7068 4.47006 15.4784C4.37545 15.2499 4.35069 14.9986 4.39892 14.7561C4.44716 14.5137 4.56621 14.2909 4.74102 14.1161C4.91584 13.9413 5.13857 13.8223 5.38104 13.774C5.62352 13.7258 5.87485 13.7505 6.10326 13.8452C6.33167 13.9398 6.52689 14.1 6.66424 14.3055C6.80159 14.5111 6.87491 14.7528 6.87491 15C6.87453 15.3314 6.74271 15.6491 6.50837 15.8835C6.27403 16.1178 5.95631 16.2496 5.62491 16.25ZM14.3749 6.875H15.8379L17.1773 10H14.3749V6.875ZM14.3749 16.25C14.1277 16.25 13.886 16.1767 13.6804 16.0393C13.4749 15.902 13.3147 15.7068 13.2201 15.4784C13.1254 15.2499 13.1007 14.9986 13.1489 14.7561C13.1972 14.5137 13.3162 14.2909 13.491 14.1161C13.6658 13.9413 13.8886 13.8223 14.131 13.774C14.3735 13.7258 14.6249 13.7505 14.8533 13.8452C15.0817 13.9398 15.2769 14.1 15.4142 14.3055C15.5516 14.5111 15.6249 14.7528 15.6249 15C15.6245 15.3314 15.4927 15.6491 15.2584 15.8835C15.024 16.1178 14.7063 16.2496 14.3749 16.25ZM17.4999 14.375H16.7861C16.6484 13.8397 16.337 13.3652 15.9006 13.0259C15.4643 12.6865 14.9277 12.5016 14.3749 12.5V11.25H17.4999V14.375Z" fill="#0080A9"/>
</g>
<defs>
<clipPath id="clip0_3488_1146">
<rect width="20" height="20" fill="white"/>
</clipPath>
</defs>
</svg>
