<svg width="40" height="40" viewBox="0 0 40 40" fill="none" xmlns="http://www.w3.org/2000/svg">
<path d="M13.8233 23.3335L10.8782 35.1137C10.5675 36.3568 12.1056 37.2069 12.9928 36.2823L32.9852 15.449C33.7477 14.6544 33.1845 13.3335 32.0833 13.3335H24.6509L27.4358 4.97878C27.7056 4.16937 27.1031 3.3335 26.2499 3.3335H14.5833C14.0252 3.3335 13.5347 3.70347 13.3814 4.24009L8.38138 21.7401C8.15323 22.5386 8.75281 23.3335 9.58328 23.3335H13.8233ZM21.7308 14.1882C21.461 14.9976 22.0634 15.8335 22.9166 15.8335H29.1513L14.4436 31.1598L16.6369 22.3867C16.8342 21.5977 16.2375 20.8335 15.4243 20.8335H11.2404L15.5262 5.8335H24.5157L21.7308 14.1882Z" fill="#26B074"/>
</svg>
