<svg width="27" height="27" viewBox="0 0 27 27" fill="none" xmlns="http://www.w3.org/2000/svg">
<path d="M14.1592 24.2793L1.7666 18.2148V12.625L14.1592 18.2148V24.2793Z" fill="#37BBEF"/>
<path d="M14.1592 24.2793L25.2334 18.2148V12.6777L14.1592 18.2148V24.2793Z" fill="#2481BA"/>
<path d="M1.7666 12.6242L14.1592 18.2141L25.2334 12.677L12.1975 8.28418L1.7666 12.6242Z" fill="#3ED6FF"/>
<path d="M14.1592 17.7139L1.7666 12.0977V6.71875L14.1592 11.6494V17.7139Z" fill="#37BBEF"/>
<path d="M14.1592 17.7139L25.2334 12.1768V6.71875L14.1592 11.6494V17.7139Z" fill="#2481BA"/>
<path d="M1.7666 6.71797L14.1592 11.6486L25.2334 6.71797L12.1975 2.7207L1.7666 6.71797Z" fill="#3ED6FF"/>
<path d="M12.8145 21.5811L2.71582 16.7822V14.752L12.8145 19.4189V21.5811ZM12.8145 15.332L2.71582 10.9814V8.95117L12.8145 13.1699V15.332Z" fill="#113B42"/>
<path d="M3.28271 9.86426L4.96494 10.5735V11.3118L3.28271 10.6025V9.86426ZM5.56084 11.5597L7.24307 12.2689V11.5359L5.56084 10.8267V11.5597ZM7.83633 12.5194L9.51855 13.2287V12.4957L7.83633 11.7864V12.5194ZM10.1118 12.7462V13.4766L11.794 14.1858V13.4555L10.1118 12.7462ZM3.28271 15.6387L4.96494 16.4218V17.1812L3.28271 16.377V15.6387ZM5.56084 17.4659L7.24307 18.2701V17.4791L5.56084 16.696V17.4659ZM7.83633 18.5549L9.51855 19.3591V18.5364L7.83633 17.7533V18.5549ZM10.1118 18.8133V19.6412L11.794 20.4454V19.5937L10.1118 18.8133Z" fill="white"/>
</svg>
