<svg width="40" height="40" viewBox="0 0 40 40" fill="none" xmlns="http://www.w3.org/2000/svg">
<path d="M30.7663 28.9783C30.0467 27.2169 29.0514 25.5741 27.8374 24.1981C29.1861 22.4986 29.9887 20.3467 29.9944 18.0021C29.9887 16.314 29.5698 14.7253 28.8303 13.3339V3.62008C28.8303 2.99711 28.6672 2.3918 28.3068 1.91492C27.9516 1.43187 27.4275 1.11125 26.8517 0.948672C26.1356 0.744609 25.1636 0.505859 24.0052 0.32C22.8412 0.133594 21.4913 0 20.0009 0C17.0209 0 14.5881 0.535391 13.1445 0.948672C12.5743 1.11125 12.0502 1.4318 11.6956 1.91492C11.3347 2.39187 11.1716 2.99719 11.1716 3.62008V13.3225C10.4264 14.7196 10.0075 16.3083 10.0075 18.0021C10.0075 20.3479 10.8106 22.5003 12.1606 24.2004C10.947 25.5759 9.95227 27.218 9.23337 28.9783C8.42173 30.9687 7.96016 33.1105 7.95899 35.1982C7.9579 35.6387 8.09032 36.0633 8.30462 36.4288C8.68313 37.0711 9.27883 37.5634 10.0115 37.9908C11.1147 38.6273 12.5652 39.1162 14.2682 39.4623C15.9699 39.8062 17.9217 40 19.9998 40C23.1686 39.9983 26.0366 39.5538 28.1869 38.7995C29.2623 38.4193 30.1627 37.9663 30.8487 37.3984C31.1902 37.1136 31.4813 36.7965 31.6956 36.4287C31.9093 36.0633 32.0416 35.6387 32.0406 35.1981C32.0401 33.1105 31.5779 30.9688 30.7663 28.9783ZM12.9165 7.24586C12.9222 7.24586 12.9284 7.25211 12.9341 7.25211C13.1495 7.32203 13.4173 7.39766 13.7259 7.4675C14.3369 7.60672 15.0991 7.72898 15.879 7.82781C17.4391 8.02617 19.1154 8.13648 19.9998 8.13648C21.1638 8.13648 23.6784 7.95008 25.5291 7.61305C26.1464 7.50789 26.6875 7.38 27.066 7.25211C27.0716 7.25211 27.0774 7.24586 27.0831 7.24586V9.06187C26.9495 9.10281 26.804 9.1375 26.6584 9.16703C25.9598 9.32391 25.1624 9.45172 24.3416 9.55695C22.7007 9.76617 21.0069 9.87695 19.9997 9.88266C18.6845 9.87695 16.1642 9.69055 14.1624 9.33586C13.7139 9.25398 13.295 9.16711 12.9164 9.06187V7.24586H12.9165ZM19.9998 37.0705C19.2202 37.0705 18.5884 36.439 18.5884 35.6591C18.5884 34.8793 19.2202 34.2478 19.9998 34.2478C20.7794 34.2478 21.4111 34.8793 21.4111 35.6591C21.4111 36.439 20.7794 37.0705 19.9998 37.0705ZM19.9998 32.4142C19.2202 32.4142 18.5884 31.7827 18.5884 31.0029C18.5884 30.223 19.2202 29.5916 19.9998 29.5916C20.7794 29.5916 21.4111 30.223 21.4111 31.0029C21.4111 31.7827 20.7794 32.4142 19.9998 32.4142ZM20.0009 26.2495C17.7195 26.2495 15.6647 25.3298 14.1693 23.8337C12.6789 22.3384 11.7536 20.2836 11.7536 18.0021C11.7536 16.7914 12.0156 15.645 12.4811 14.6088C12.9642 14.772 13.5343 14.8941 14.163 15.0106C16.1654 15.3653 18.68 15.5517 20.0009 15.5517C21.0081 15.5517 22.7013 15.4409 24.3429 15.2317C25.1637 15.1266 25.9611 14.9987 26.6596 14.8418C26.9677 14.7776 27.2531 14.702 27.515 14.6088C27.9863 15.6449 28.2425 16.7914 28.2483 18.002C28.2426 20.2835 27.323 22.3383 25.8332 23.8337C24.3372 25.3298 22.2824 26.2495 20.0009 26.2495Z" fill="black"/>
</svg>
