<svg width="21" height="20" viewBox="0 0 21 20" fill="none" xmlns="http://www.w3.org/2000/svg">
<g clip-path="url(#clip0_1641_982)">
<path d="M10.5 19.565C15.7828 19.565 20.0653 15.2825 20.0653 9.99979C20.0653 4.71706 15.7828 0.43457 10.5 0.43457C5.21731 0.43457 0.934814 4.71706 0.934814 9.99979C0.934814 15.2825 5.21731 19.565 10.5 19.565Z" fill="#9CE0FF"/>
<path d="M13.4565 1.36914C15.8695 2.99958 17.4565 5.78218 17.4565 8.91262C17.4565 13.9561 13.3695 18.0431 8.32603 18.0431C7.28255 18.0431 6.30429 17.8691 5.36951 17.5431C6.82603 18.5431 8.60864 19.13 10.4999 19.13C15.5434 19.13 19.6304 15.0431 19.6304 9.99958C19.6304 5.99958 17.0434 2.58653 13.4565 1.36914Z" fill="#89DAF7"/>
<path d="M10.5 15.6523C10.2608 15.6523 10.0652 15.4567 10.0652 15.2176V7.58713C10.0652 7.348 10.2608 7.15234 10.5 7.15234C10.7391 7.15234 10.9348 7.348 10.9348 7.58713V15.2176C10.9348 15.4567 10.7391 15.6523 10.5 15.6523Z" fill="white"/>
<path d="M10.5 6.06543C10.2608 6.06543 10.0652 5.86978 10.0652 5.63065V5.00021C10.0652 4.76108 10.2608 4.56543 10.5 4.56543C10.7391 4.56543 10.9348 4.76108 10.9348 5.00021V5.63065C10.9348 5.86978 10.7391 6.06543 10.5 6.06543Z" fill="white"/>
<path d="M10.5 16.0875C10.3913 16.0875 10.2826 16.044 10.1957 15.9571L6.34784 12.1092C6.17393 11.9353 6.17393 11.6745 6.34784 11.5006C6.52176 11.3266 6.78262 11.3266 6.95654 11.5006L10.5 15.044L14.0435 11.5006C14.2174 11.3266 14.4783 11.3266 14.6522 11.5006C14.8261 11.6745 14.8261 11.9353 14.6522 12.1092L10.8044 15.9571C10.7174 16.044 10.6087 16.0875 10.5 16.0875Z" fill="white"/>
<path d="M10.5 20C4.97826 20 0.5 15.5217 0.5 10C0.5 4.47826 4.97826 0 10.5 0C16.0217 0 20.5 4.47826 20.5 10C20.5 15.5217 16.0217 20 10.5 20ZM10.5 0.869565C5.45652 0.869565 1.36957 4.95652 1.36957 10C1.36957 15.0435 5.45652 19.1304 10.5 19.1304C15.5435 19.1304 19.6304 15.0435 19.6304 10C19.6304 4.95652 15.5435 0.869565 10.5 0.869565Z" fill="#61A1DD"/>
</g>
<defs>
<clipPath id="clip0_1641_982">
<rect width="20" height="20" fill="white" transform="translate(0.5)"/>
</clipPath>
</defs>
</svg>
