<svg width="40" height="40" viewBox="0 0 40 40" fill="none" xmlns="http://www.w3.org/2000/svg">
<path d="M2.40623 9.19999L10.5396 1.06663C11.1396 0.46663 12.0729 0.53327 12.6062 1.26663L19.5396 11.2666C19.8729 11.8 19.8729 12.5333 19.4062 13L14.3396 18C13.8729 18.4666 13.1396 18.5333 12.6062 18.1333L2.60623 11.2C1.87287 10.7333 1.80623 9.73335 2.40623 9.19999Z" fill="#FD9808"/>
<path d="M2.27285 9.26668L9.60621 1.93332C10.1396 1.39996 11.0062 1.46668 11.4729 2.13332L17.7395 11.2C18.0729 11.6666 18.0061 12.3333 17.6061 12.7333L13.0728 17.2667C12.6728 17.6667 12.0061 17.7333 11.5394 17.4L2.47285 11.1334C1.87285 10.6667 1.80621 9.80004 2.27285 9.26668Z" fill="#FFDD09"/>
<path d="M26.6729 39.3334H16.0062C11.6062 39.3334 8.00623 35.7334 8.00623 31.3334V27.3334H34.6729V31.3334C34.6729 35.7334 31.0729 39.3334 26.6729 39.3334Z" fill="#FD9808"/>
<path d="M11.1396 12.6667C11.9396 11.8667 11.9396 10.6 11.1396 9.86667C11.9396 10.6667 13.2062 10.6667 13.9396 9.86667C14.7396 9.06667 14.7396 7.80003 13.9396 7.06667C13.1396 6.26667 11.8729 6.26667 11.1396 7.06667C10.3396 6.26667 9.07292 6.26667 8.33956 7.06667C7.53956 7.86667 7.53956 9.13332 8.33956 9.86667C7.53956 10.6667 7.53956 11.9333 8.33956 12.6667C9.13956 13.4667 10.4062 13.4667 11.1396 12.6667Z" fill="#1CD759"/>
<path d="M24.6729 39.3334H16.0062C11.6062 39.3334 8.00623 35.7334 8.00623 31.3334V27.3334H32.6729V31.3334C32.6729 35.7334 29.0729 39.3334 24.6729 39.3334Z" fill="#FFDD09"/>
<path d="M10.0062 27.3334V31.3334C10.0062 35.7334 13.6062 39.3334 18.0062 39.3334H16.0062C11.6062 39.3334 8.00623 35.7334 8.00623 31.3334V27.3334H10.0062Z" fill="white"/>
<path d="M18.6729 21.3334C18.6729 21.7334 18.4062 22 18.0062 22C17.6062 22 17.3396 21.7334 17.3396 21.3334C17.3396 20.9334 17.6062 20.6667 18.0062 20.6667C18.4062 20.6667 18.6729 20.9334 18.6729 21.3334Z" fill="black"/>
<path d="M20.6729 18.6666C20.6729 19.0666 20.4062 19.3333 20.0062 19.3333C19.6062 19.3333 19.3396 19.0666 19.3396 18.6666C19.3396 18.2666 19.6062 18 20.0062 18C20.4062 18 20.6729 18.2666 20.6729 18.6666Z" fill="black"/>
<path d="M18.6729 17.3334C18.6729 17.7334 18.4062 18 18.0062 18C17.6062 18 17.3396 17.7334 17.3396 17.3334C17.3396 16.9334 17.6062 16.6667 18.0062 16.6667C18.4062 16.6667 18.6729 16.9334 18.6729 17.3334Z" fill="black"/>
<path d="M20.6729 23.3334C20.6729 23.7334 20.4062 24 20.0062 24C19.6062 24 19.3396 23.7334 19.3396 23.3334C19.3396 22.9334 19.6062 22.6667 20.0062 22.6667C20.4062 22.6667 20.6729 22.9334 20.6729 23.3334Z" fill="black"/>
<path d="M19.3396 26.6666C19.3396 27.0666 19.0729 27.3333 18.6729 27.3333C18.2729 27.3333 18.0063 27.0666 18.0063 26.6666C18.0063 26.2666 18.2729 26 18.6729 26C19.0728 26 19.3396 26.2666 19.3396 26.6666Z" fill="black"/>
<path d="M26.6729 40H16.0062C11.2062 40 7.3396 36.1334 7.3396 31.3334V27.3334C7.3396 26.9334 7.60624 26.6667 8.00624 26.6667H34.6729C35.0729 26.6667 35.3395 26.9334 35.3395 27.3334V31.3334C35.3396 36.1334 31.4729 40 26.6729 40ZM8.67288 28V31.3334C8.67288 35.4 11.9395 38.6667 16.0062 38.6667H26.6729C30.7395 38.6667 34.0062 35.4001 34.0062 31.3334V28H8.67288Z" fill="black"/>
<path d="M34.0062 40.0001H8.67283C8.60619 40.0001 8.60619 40.0001 8.53947 40.0001L5.20611 39.3334C4.87275 39.2668 4.60611 38.9334 4.67275 38.5334C4.73939 38.2001 5.07275 37.9334 5.47275 38.0001L8.73939 38.6667H33.9394L37.206 38.0001C37.5394 37.9334 37.9394 38.1334 38.006 38.5334C38.0727 38.8668 37.8727 39.2668 37.4727 39.3334L34.1395 40.0001C34.0728 40.0001 34.0728 40.0001 34.0062 40.0001Z" fill="black"/>
<path d="M28.6728 28C28.4728 28 28.3395 27.9333 28.2062 27.8C27.9396 27.5333 27.9396 27.1333 28.2062 26.8666L37.5396 17.5332C37.8062 17.2666 38.2062 17.2666 38.4729 17.5332C38.7396 17.7999 38.7396 18.1999 38.4729 18.4666L29.1396 27.8C29.0062 27.9333 28.8728 28 28.6728 28Z" fill="black"/>
<path d="M13.3396 19.0666C12.9396 19.0666 12.5396 18.9333 12.2062 18.7333L2.20622 11.7999C1.73958 11.4666 1.40622 10.9333 1.33958 10.3333C1.27294 9.73328 1.47294 9.13328 1.93958 8.73328L10.0062 0.6C10.4062 0.2 11.0062 0 11.6062 0C12.2062 0.0666406 12.7396 0.333359 13.0729 0.866641L20.0062 10.8666C20.5396 11.6666 20.4729 12.7333 19.8062 13.4L14.8062 18.4C14.4062 18.8666 13.8729 19.0666 13.3396 19.0666ZM2.87286 9.66664C2.67286 9.8 2.67286 10.0666 2.67286 10.2C2.67286 10.3334 2.7395 10.5334 2.9395 10.6666L12.9395 17.6C13.2061 17.8 13.5395 17.7334 13.8061 17.5334L18.8061 12.5334C19.0061 12.3334 19.0728 11.9334 18.8728 11.6667L12.0062 1.6C11.8729 1.4 11.6062 1.33336 11.5396 1.33336C11.4062 1.33336 11.2062 1.33336 11.0062 1.53336L2.87286 9.66664Z" fill="black"/>
<path d="M9.73958 13.9334C9.07294 13.9334 8.40622 13.6668 7.87294 13.1334C7.0063 12.2668 6.87294 10.8668 7.47294 9.86675C6.8063 8.86675 6.93958 7.46675 7.87294 6.60011C8.73958 5.73347 10.1396 5.60011 11.2063 6.20011C12.2063 5.53347 13.6063 5.66675 14.4729 6.60011C15.0063 7.13347 15.2729 7.80011 15.2729 8.46675C15.2729 9.20011 15.0063 9.86675 14.4729 10.3334C13.9396 10.8668 13.1396 11.1334 12.4063 11.1334C12.4729 11.8668 12.2063 12.6 11.6063 13.2C11.1396 13.6667 10.4062 13.9334 9.73958 13.9334ZM9.73958 7.06667C9.40622 7.06667 9.07294 7.20003 8.80622 7.46667C8.27286 8.00003 8.27286 8.80003 8.80622 9.33331C9.07286 9.59995 9.07286 9.99995 8.80622 10.2667C8.27286 10.8 8.27286 11.6 8.80622 12.1333C9.33958 12.6666 10.1396 12.6667 10.6729 12.1333C11.2062 11.6 11.2062 10.8 10.6729 10.2667C10.5395 10.1333 10.4729 9.93331 10.4729 9.80003C10.4729 9.66675 10.5395 9.46667 10.6729 9.33339C10.9395 9.06675 11.3395 9.06675 11.6062 9.33339C12.1396 9.86675 12.9396 9.86675 13.4729 9.33339C13.7395 9.06675 13.8729 8.73339 13.8729 8.40003C13.8729 8.06667 13.7395 7.73339 13.4729 7.46667C12.9395 6.93331 12.1395 6.93331 11.6062 7.46667C11.3396 7.73331 10.9396 7.73331 10.6729 7.46667C10.4062 7.20003 10.0729 7.06667 9.73958 7.06667Z" fill="black"/>
</svg>
