<svg width="21" height="20" viewBox="0 0 21 20" fill="none" xmlns="http://www.w3.org/2000/svg">
<path d="M9.04148 9.82923C8.86543 9.65417 8.62725 9.55591 8.37898 9.55591C8.13071 9.55591 7.89253 9.65417 7.71648 9.82923L5.8019 11.7459C5.71472 11.8328 5.64554 11.936 5.59835 12.0497C5.55115 12.1634 5.52686 12.2853 5.52686 12.4084C5.52686 12.5315 5.55115 12.6534 5.59835 12.7671C5.64554 12.8807 5.71472 12.984 5.8019 13.0709L7.42273 14.6917C7.50963 14.7789 7.61288 14.8481 7.72657 14.8953C7.84025 14.9425 7.96213 14.9668 8.08523 14.9668C8.20832 14.9668 8.3302 14.9425 8.44389 14.8953C8.55758 14.8481 8.66083 14.7789 8.74773 14.6917L10.6623 12.7771C10.7496 12.6901 10.8188 12.5866 10.866 12.4728C10.9132 12.3589 10.9375 12.2369 10.9375 12.1136C10.9375 11.9903 10.9132 11.8683 10.866 11.7544C10.8188 11.6406 10.7496 11.5371 10.6623 11.4501L9.04148 9.82923ZM10.5165 12.6292L8.59981 14.5438C8.53207 14.6134 8.45108 14.6686 8.36163 14.7064C8.27217 14.7441 8.17607 14.7636 8.07898 14.7636C7.98189 14.7636 7.88578 14.7441 7.79633 14.7064C7.70688 14.6686 7.62589 14.6134 7.55815 14.5438L5.95815 12.9167C5.8886 12.849 5.83332 12.768 5.79558 12.6785C5.75784 12.5891 5.73839 12.493 5.73839 12.3959C5.73839 12.2988 5.75784 12.2027 5.79558 12.1132C5.83332 12.0238 5.8886 11.9428 5.95815 11.8751L7.87273 9.96048C7.94076 9.89144 8.02185 9.83662 8.11126 9.7992C8.20067 9.76178 8.29663 9.74251 8.39356 9.74251C8.49049 9.74251 8.58645 9.76178 8.67586 9.7992C8.76528 9.83662 8.84636 9.89144 8.91439 9.96048L10.5352 11.5813C10.6045 11.6501 10.6594 11.7322 10.6965 11.8225C10.7336 11.9129 10.7522 12.0098 10.7512 12.1075C10.7502 12.2051 10.7297 12.3016 10.6908 12.3913C10.6519 12.4809 10.5955 12.5618 10.5248 12.6292H10.5165Z" fill="black"/>
<path d="M16.9833 3.51874C16.9634 3.49952 16.9369 3.48877 16.9093 3.48877C16.8817 3.48877 16.8552 3.49952 16.8353 3.51874L15.0833 5.26249L14.9374 5.11665C14.8342 5.01395 14.7087 4.93646 14.5707 4.89021C14.4327 4.84396 14.2858 4.83019 14.1416 4.84999L10.7083 5.34165C10.5081 5.37085 10.3226 5.4636 10.1791 5.60624L4.33743 11.4583C4.21151 11.5839 4.1116 11.7331 4.04344 11.8974C3.97527 12.0617 3.94019 12.2378 3.94019 12.4156C3.94019 12.5935 3.97527 12.7696 4.04344 12.9338C4.1116 13.0981 4.21151 13.2473 4.33743 13.3729L7.13534 16.1646C7.38955 16.4179 7.73378 16.5601 8.09264 16.5601C8.45149 16.5601 8.79572 16.4179 9.04993 16.1646L14.8937 10.3208C15.0372 10.1777 15.1307 9.99214 15.1603 9.79165L15.6499 6.35415C15.6706 6.21006 15.6575 6.06313 15.6116 5.925C15.5657 5.78687 15.4882 5.66132 15.3853 5.55832L15.2374 5.41665L16.9833 3.6729C16.9937 3.66297 17.0021 3.65102 17.0078 3.63777C17.0134 3.62452 17.0164 3.61024 17.0164 3.59582C17.0164 3.58139 17.0134 3.56712 17.0078 3.55387C17.0021 3.54062 16.9937 3.52866 16.9833 3.51874ZM15.2374 5.70624C15.3192 5.78646 15.3807 5.88496 15.4169 5.99362C15.4531 6.10229 15.463 6.218 15.4458 6.33124L14.9562 9.76873C14.9337 9.92653 14.8606 10.0728 14.7478 10.1854L8.91451 16.0292C8.8081 16.1356 8.68176 16.2201 8.54271 16.2777C8.40366 16.3353 8.25461 16.3649 8.10409 16.3649C7.95358 16.3649 7.80453 16.3353 7.66548 16.2777C7.52642 16.2201 7.40008 16.1356 7.29368 16.0292L4.48326 13.2187C4.26928 13.0033 4.14918 12.712 4.14918 12.4083C4.14918 12.1047 4.26928 11.8133 4.48326 11.5979L10.327 5.76457C10.4403 5.65266 10.5862 5.57969 10.7437 5.55624L14.1812 5.06457H14.2833C14.4762 5.06312 14.6619 5.13801 14.7999 5.2729L14.9478 5.42082L13.3041 7.06249C13.1366 6.93261 12.9259 6.87144 12.7149 6.89142C12.5039 6.91139 12.3085 7.01101 12.1683 7.17C12.0282 7.329 11.9539 7.53541 11.9605 7.74725C11.9672 7.95909 12.0543 8.16043 12.2042 8.3103C12.3541 8.46016 12.5554 8.54729 12.7672 8.55396C12.9791 8.56063 13.1855 8.48633 13.3445 8.34618C13.5035 8.20604 13.6031 8.01057 13.6231 7.79957C13.6431 7.58858 13.5819 7.37789 13.452 7.2104L15.0833 5.55832L15.2374 5.70624ZM13.2333 8.14999C13.1148 8.26039 12.9581 8.32049 12.7962 8.31763C12.6342 8.31477 12.4798 8.24918 12.3652 8.13467C12.2507 8.02016 12.1851 7.86567 12.1823 7.70375C12.1794 7.54184 12.2395 7.38513 12.3499 7.26665C12.4671 7.14961 12.626 7.08387 12.7916 7.08387C12.9572 7.08387 13.1161 7.14961 13.2333 7.26665C13.3503 7.38384 13.416 7.54269 13.416 7.70832C13.416 7.87394 13.3503 8.0328 13.2333 8.14999Z" fill="black"/>
<path d="M7.41871 11.425C7.40914 11.4154 7.39777 11.4078 7.38526 11.4026C7.37275 11.3974 7.35934 11.3948 7.3458 11.3948C7.33225 11.3948 7.31884 11.3974 7.30633 11.4026C7.29382 11.4078 7.28245 11.4154 7.27288 11.425C7.2633 11.4346 7.25571 11.4459 7.25053 11.4584C7.24534 11.4709 7.24268 11.4844 7.24268 11.4979C7.24268 11.5114 7.24534 11.5248 7.25053 11.5374C7.25571 11.5499 7.2633 11.5612 7.27288 11.5708L8.89371 13.1916C8.90306 13.2016 8.91436 13.2096 8.9269 13.215C8.93944 13.2204 8.95296 13.2232 8.96663 13.2232C8.98029 13.2232 8.99382 13.2204 9.00636 13.215C9.0189 13.2096 9.03019 13.2016 9.03955 13.1916C9.04931 13.182 9.05706 13.1704 9.06235 13.1577C9.06764 13.1451 9.07036 13.1314 9.07036 13.1177C9.07036 13.1039 9.06764 13.0903 9.06235 13.0776C9.05706 13.0649 9.04931 13.0534 9.03955 13.0437L7.41871 11.425Z" fill="black"/>
<path d="M6.54164 12.3084C6.53228 12.2985 6.52099 12.2905 6.50845 12.2851C6.49591 12.2797 6.48238 12.2769 6.46872 12.2769C6.45505 12.2769 6.44153 12.2797 6.42899 12.2851C6.41645 12.2905 6.40515 12.2985 6.3958 12.3084C6.38604 12.3181 6.37829 12.3296 6.373 12.3423C6.36771 12.355 6.36499 12.3686 6.36499 12.3824C6.36499 12.3961 6.36771 12.4097 6.373 12.4224C6.37829 12.4351 6.38604 12.4467 6.3958 12.4563L7.99997 14.0751C8.01984 14.095 8.04682 14.1063 8.07497 14.1063C8.10245 14.1059 8.12865 14.0947 8.14789 14.0751C8.15785 14.0657 8.16579 14.0544 8.17122 14.0419C8.17665 14.0294 8.17945 14.0158 8.17945 14.0022C8.17945 13.9885 8.17665 13.975 8.17122 13.9624C8.16579 13.9499 8.15785 13.9386 8.14789 13.9293L6.54164 12.3084Z" fill="black"/>
<path d="M6.97694 11.8751C6.96759 11.8651 6.95629 11.8572 6.94375 11.8517C6.93121 11.8463 6.91769 11.8435 6.90402 11.8435C6.89036 11.8435 6.87683 11.8463 6.86429 11.8517C6.85175 11.8572 6.84046 11.8651 6.8311 11.8751C6.82134 11.8848 6.81359 11.8963 6.8083 11.909C6.80302 11.9217 6.80029 11.9353 6.80029 11.949C6.80029 11.9628 6.80302 11.9764 6.8083 11.9891C6.81359 12.0018 6.82134 12.0133 6.8311 12.023L8.44986 13.6417C8.46973 13.6617 8.4967 13.6729 8.52486 13.673C8.54524 13.6727 8.5651 13.6664 8.58196 13.655C8.59882 13.6435 8.61195 13.6273 8.61971 13.6085C8.62748 13.5896 8.62954 13.5689 8.62564 13.5489C8.62174 13.5289 8.61205 13.5105 8.59777 13.4959L6.97694 11.8751Z" fill="black"/>
<path d="M8.30404 10.5397C8.28442 10.5201 8.25782 10.509 8.23008 10.509C8.20234 10.509 8.17574 10.5201 8.15612 10.5397C8.13651 10.5593 8.12549 10.5859 8.12549 10.6136C8.12549 10.6414 8.13651 10.668 8.15612 10.6876L9.77696 12.3084C9.78641 12.3182 9.79773 12.326 9.81025 12.3314C9.82278 12.3368 9.83625 12.3396 9.84987 12.3397C9.87803 12.3396 9.905 12.3284 9.92487 12.3084C9.94409 12.2886 9.95484 12.2621 9.95484 12.2345C9.95484 12.2068 9.94409 12.1803 9.92487 12.1605L8.30404 10.5397Z" fill="black"/>
<path d="M7.86234 10.9832C7.85266 10.9734 7.84114 10.9657 7.82845 10.9604C7.81575 10.9551 7.80214 10.9524 7.78839 10.9524C7.77463 10.9524 7.76102 10.9551 7.74833 10.9604C7.73563 10.9657 7.72411 10.9734 7.71443 10.9832C7.70446 10.9926 7.69652 11.0039 7.69109 11.0164C7.68566 11.0289 7.68286 11.0425 7.68286 11.0561C7.68286 11.0698 7.68566 11.0833 7.69109 11.0958C7.69652 11.1084 7.70446 11.1197 7.71443 11.129L9.33526 12.7499C9.34461 12.7598 9.35591 12.7678 9.36845 12.7732C9.38099 12.7786 9.39451 12.7814 9.40818 12.7814C9.42184 12.7814 9.43536 12.7786 9.44791 12.7732C9.46045 12.7678 9.47174 12.7598 9.48109 12.7499C9.49086 12.7402 9.49861 12.7287 9.5039 12.716C9.50918 12.7033 9.51191 12.6897 9.51191 12.6759C9.51191 12.6622 9.50918 12.6485 9.5039 12.6359C9.49861 12.6232 9.49086 12.6116 9.48109 12.602L7.86234 10.9832Z" fill="black"/>
</svg>
