<svg width="12" height="12" viewBox="0 0 12 12" fill="none" xmlns="http://www.w3.org/2000/svg">
<g clip-path="url(#clip0_3471_1124)">
<path d="M5.28769 1.15165C6.02508 0.414261 7.02519 0 8.06805 0C10.2396 0 12 1.76041 12 3.93198C12 4.97481 11.5858 5.97492 10.8484 6.71231L9.31065 8.25L8.25 7.18934L9.78772 5.65165C10.2438 5.19557 10.5 4.57698 10.5 3.93198C10.5 2.58883 9.41115 1.5 8.06805 1.5C7.42302 1.5 6.80443 1.75622 6.34835 2.21231L4.81066 3.75L3.75 2.68934L5.28769 1.15165Z" fill="#26B074"/>
<path d="M5.65165 9.78772L7.18934 8.25L8.25 9.31065L6.71231 10.8484C5.97492 11.5858 4.97481 12 3.93198 12C1.76041 12 0 10.2396 0 8.06805C0 7.0252 0.41426 6.02508 1.15165 5.28769L2.68934 3.75L3.75 4.81066L2.21231 6.34835C1.75622 6.80443 1.5 7.42302 1.5 8.06805C1.5 9.41115 2.58883 10.5 3.93198 10.5C4.57698 10.5 5.19557 10.2438 5.65165 9.78772Z" fill="#26B074"/>
<path d="M4.28039 8.78038L8.78038 4.28039L7.71973 3.21973L3.21973 7.71973L4.28039 8.78038Z" fill="#26B074"/>
</g>
<defs>
<clipPath id="clip0_3471_1124">
<rect width="12" height="12" fill="white"/>
</clipPath>
</defs>
</svg>
