<svg width="21" height="20" viewBox="0 0 21 20" fill="none" xmlns="http://www.w3.org/2000/svg">
<path d="M10.5 17.5C14.6421 17.5 18 14.1421 18 10C18 5.85786 14.6421 2.5 10.5 2.5C6.35786 2.5 3 5.85786 3 10C3 14.1421 6.35786 17.5 10.5 17.5Z" fill="#2CA9BC"/>
<path d="M8.83337 12.5H10.9167C11.2482 12.5 11.5662 12.3683 11.8006 12.1339C12.035 11.8995 12.1667 11.5815 12.1667 11.25C12.1667 10.9185 12.035 10.6005 11.8006 10.3661C11.5662 10.1317 11.2482 10 10.9167 10H10.0834C9.75185 10 9.43391 9.8683 9.19949 9.63388C8.96507 9.39946 8.83337 9.08152 8.83337 8.75C8.83337 8.41848 8.96507 8.10054 9.19949 7.86612C9.43391 7.6317 9.75185 7.5 10.0834 7.5H12.1667" stroke="black" stroke-width="2" stroke-linecap="round" stroke-linejoin="round"/>
<path d="M10.5 7.5V6.66667M10.5 13.3333V12.5M10.5 2.5C9.01664 2.5 7.5666 2.93987 6.33323 3.76398C5.09986 4.58809 4.13856 5.75943 3.57091 7.12987C3.00325 8.50032 2.85472 10.0083 3.14411 11.4632C3.4335 12.918 4.14781 14.2544 5.1967 15.3033C6.2456 16.3522 7.58197 17.0665 9.03683 17.3559C10.4917 17.6453 11.9997 17.4968 13.3701 16.9291C14.7406 16.3614 15.9119 15.4001 16.736 14.1668C17.5601 12.9334 18 11.4834 18 10C18 8.01088 17.2098 6.10322 15.8033 4.6967C14.3968 3.29018 12.4891 2.5 10.5 2.5Z" stroke="black" stroke-width="2" stroke-linecap="round" stroke-linejoin="round"/>
</svg>
