<svg width="40" height="40" viewBox="0 0 40 40" fill="none" xmlns="http://www.w3.org/2000/svg">
<g clip-path="url(#clip0_2903_998)">
<path d="M0.00012207 7.5V36.355L0.011364 36.3662C0.0751139 38.3825 1.72014 40 3.75013 40H7.50013V7.5H0.00012207Z" fill="#37A18E"/>
<path d="M1.25018 39.0262C1.6102 39.3525 2.03273 39.6049 2.50023 39.7724V7.50122H1.25018V39.0262Z" fill="#319180"/>
<path d="M7.50017 7.50122H6.25012V40H7.50017V7.50122Z" fill="#319180"/>
<path d="M5.00017 7.50122H3.75012V40H5.00017V7.50122Z" fill="#319180"/>
<path d="M7.50013 0V36.2525C7.50013 38.3225 5.82261 40 3.75012 40H36.2226L36.225 39.9975C36.235 39.9975 36.2426 40 36.25 40C36.5087 40 36.7624 39.9738 37.0062 39.9238C37.1237 39.8988 37.2312 39.8525 37.3437 39.8188C37.4663 39.7812 37.5924 39.755 37.7099 39.705C37.8975 39.6263 38.0736 39.5225 38.2475 39.4138C38.2787 39.3938 38.3137 39.3825 38.3449 39.36C39.3412 38.6888 39.9975 37.5501 40 36.2588V36.2575V0H7.50013Z" fill="#3DB39E"/>
<path d="M16.25 4.16129C16.25 6.65508 14.1976 8.67876 11.6676 8.67876C11.5264 8.67876 11.3889 8.67122 11.2501 8.65874V39.9362H36.2501V8.65874C36.1138 8.67122 35.9739 8.67999 35.8351 8.67999C33.3039 8.67876 31.2501 6.65494 31.2501 4.16129C31.2501 4.02255 31.2601 3.88627 31.2725 3.75H16.2302C16.2426 3.88627 16.25 4.02255 16.25 4.16129Z" fill="#37A18E"/>
<path d="M33.7351 32.5C33.7351 26.9863 29.2651 22.5175 23.7501 22.5175C18.2363 22.5175 13.7675 26.9863 13.7675 32.5C13.7675 35.4587 15.0613 38.1075 17.105 39.9363H30.3962C32.4413 38.1075 33.7351 35.4587 33.7351 32.5ZM27.5513 36.5412C27.4175 36.6225 27.2514 36.6712 27.0851 36.6712C26.5876 36.6712 26.1889 36.2811 26.1889 35.8099C26.1889 35.4512 26.3864 35.2574 26.5526 35.095C27.2514 34.4113 27.8151 33.55 27.8151 32.4263C27.8151 30.9463 27.3176 30.2312 26.2864 30.2312C23.8626 30.2312 24.9752 36.1675 20.9714 36.1675C19.4927 36.1675 18.2126 35.2562 17.9815 33.1749H17.034C16.6014 33.1749 16.2527 32.8337 16.2527 32.4249C16.2527 32.0024 16.6014 31.6611 17.034 31.6611H17.9978C18.1653 30.3612 18.6966 29.2887 19.4928 28.7336C19.6428 28.6373 19.8253 28.5711 20.0253 28.5711C20.5065 28.5711 20.9065 28.9611 20.9065 29.4487C20.9065 29.6775 20.7727 29.9049 20.5416 30.1499C20.0428 30.6524 19.6603 31.4999 19.6603 32.4249C19.6603 33.7749 20.3091 34.2799 20.9729 34.2799C23.1479 34.2799 22.1353 28.3437 26.2879 28.3437C28.1166 28.3437 29.3129 29.4824 29.5279 31.6599H30.4604C30.8903 31.6599 31.2391 32.0011 31.2391 32.4236C31.2391 32.8311 30.8903 33.1737 30.4604 33.1737H29.5279C29.3288 34.7537 28.4639 35.9887 27.5513 36.5412Z" fill="#9FCAC2"/>
</g>
<defs>
<clipPath id="clip0_2903_998">
<rect width="40" height="40" fill="white"/>
</clipPath>
</defs>
</svg>
