<svg width="12" height="13" viewBox="0 0 12 13" fill="none" xmlns="http://www.w3.org/2000/svg">
<g clip-path="url(#clip0_3522_1128)">
<path d="M5.98663 0.582813C6.01105 0.645667 5.96881 0.703178 5.9342 0.751782C5.68915 1.09914 5.49649 1.48757 5.41964 1.90516C5.38959 1.99086 5.39623 2.05472 5.41964 2.06184C5.89525 2.02011 6.4317 2.02491 6.89993 2.12492C7.7519 2.29643 8.54815 2.72751 9.16015 3.34384C9.77038 3.95381 10.1987 4.7442 10.372 5.58981C10.5641 6.50541 10.4567 7.48004 10.0724 8.33278C9.25762 10.0741 7.88397 11.547 6.20318 12.4807C6.14898 12.5059 6.07086 12.5069 6.0337 12.4529C5.98993 12.3964 6.008 12.316 6.05126 12.2646C6.278 11.9483 6.43628 11.5847 6.52229 11.2055C6.53883 11.1269 6.56148 11.0472 6.55461 10.9663C6.52687 10.9302 6.48107 10.9411 6.44213 10.9424C5.62629 11.0241 4.78679 10.8783 4.04958 10.5179C3.25995 10.1375 2.58993 9.51556 2.14689 8.75953C1.73642 8.06405 1.52063 7.25407 1.53565 6.44612C1.53845 5.70458 1.74075 4.96916 2.09701 4.32C2.92634 2.72776 4.22847 1.38415 5.80061 0.516141C5.86651 0.479497 5.96398 0.506725 5.98663 0.582813ZM5.7548 4.77118C5.26952 4.83632 4.8219 5.12133 4.55013 5.52747C4.36614 5.80637 4.25469 6.13769 4.25698 6.47309C4.24323 6.92249 4.42238 7.37265 4.73284 7.69634C5.00411 7.98847 5.38098 8.17882 5.77618 8.22971C6.1785 8.2829 6.59863 8.18874 6.93937 7.96761C7.28571 7.74774 7.5496 7.40064 7.66767 7.00748C7.88932 6.32499 7.62365 5.52543 7.04549 5.10377C6.68235 4.82742 6.20624 4.70476 5.7548 4.77118Z" fill="url(#paint0_linear_3522_1128)"/>
</g>
<defs>
<linearGradient id="paint0_linear_3522_1128" x1="448.047" y1="0.5" x2="448.047" y2="1200.24" gradientUnits="userSpaceOnUse">
<stop stop-color="#FF9900"/>
<stop offset="1" stop-color="#F05A22"/>
</linearGradient>
<clipPath id="clip0_3522_1128">
<rect width="12" height="12" fill="white" transform="translate(0 0.5)"/>
</clipPath>
</defs>
</svg>
