<svg width="27" height="27" viewBox="0 0 27 27" fill="none" xmlns="http://www.w3.org/2000/svg">
<path d="M24.4918 7.77988C24.4274 7.65803 24.3173 7.56662 24.1857 7.5256C24.0541 7.48458 23.9117 7.49728 23.7894 7.56093C23.6671 7.62457 23.575 7.734 23.5331 7.86533C23.4912 7.99665 23.503 8.13922 23.5658 8.2619C24.6861 10.4004 25.0921 12.8414 24.7242 15.2274C24.3563 17.6133 23.2338 19.8187 21.5214 21.5204C17.0993 25.942 9.90317 25.9434 5.4792 21.5199C5.40619 21.4469 5.31317 21.3972 5.21191 21.3771C5.11065 21.357 5.0057 21.3673 4.91033 21.4069C4.81497 21.4464 4.73347 21.5134 4.67616 21.5993C4.61885 21.6851 4.5883 21.7861 4.58838 21.8893V24.8899C4.58838 25.0283 4.64336 25.1611 4.74124 25.2589C4.83911 25.3568 4.97185 25.4118 5.11026 25.4118C5.24868 25.4118 5.38142 25.3568 5.47929 25.2589C5.57717 25.1611 5.63215 25.0283 5.63215 24.8899V23.0679C7.83793 24.8808 10.6021 25.8763 13.4573 25.886C16.3125 25.8956 19.0834 24.9189 21.3013 23.1209C23.5193 21.323 25.0483 18.8142 25.6296 16.0188C26.211 13.2234 25.8091 10.313 24.4918 7.77988Z" fill="black"/>
<path d="M5.47894 5.47877C9.90244 1.05573 17.0985 1.05619 21.5211 5.47831C21.594 5.55141 21.687 5.60122 21.7883 5.62143C21.8895 5.64164 21.9945 5.63133 22.0899 5.59182C22.1853 5.55231 22.2668 5.48537 22.3242 5.39949C22.3815 5.3136 22.412 5.21263 22.4119 5.10938V2.10879C22.4119 1.97038 22.3569 1.83763 22.2591 1.73976C22.1612 1.64189 22.0285 1.5869 21.89 1.5869C21.7516 1.5869 21.6189 1.64189 21.521 1.73976C21.4231 1.83763 21.3682 1.97038 21.3682 2.10879V3.93076C16.5071 -0.0719304 9.28415 0.197357 4.74107 4.74044C2.87086 6.59854 1.64504 9.00686 1.24325 11.6124C0.841474 14.2179 1.28487 16.8836 2.50846 19.2188C2.57291 19.3407 2.68294 19.4321 2.81454 19.4731C2.94614 19.5141 3.08862 19.5014 3.21089 19.4378C3.33316 19.3741 3.4253 19.2647 3.46718 19.1334C3.50907 19.002 3.49731 18.8595 3.43447 18.7368C2.31413 16.5984 1.90817 14.1574 2.27608 11.7715C2.644 9.38563 3.76645 7.18031 5.47894 5.47877Z" fill="black"/>
<path d="M6.66553 13.4238V19.1951C6.66664 19.5724 6.81701 19.9339 7.08379 20.2006C7.35057 20.4674 7.71207 20.6178 8.08935 20.6189H18.9104C19.2876 20.6178 19.6492 20.4675 19.916 20.2007C20.1828 19.9339 20.3331 19.5724 20.3342 19.1951V13.4238C20.3331 13.0465 20.1827 12.685 19.916 12.4182C19.6492 12.1514 19.2876 12.0011 18.9104 12H8.08935C7.71208 12.0011 7.35057 12.1515 7.08379 12.4183C6.81702 12.685 6.66665 13.0465 6.66553 13.4238ZM17.2967 15.1944C17.5173 15.1944 17.7329 15.2598 17.9163 15.3823C18.0997 15.5048 18.2426 15.679 18.327 15.8828C18.4114 16.0865 18.4335 16.3107 18.3904 16.5271C18.3474 16.7434 18.2412 16.9421 18.0853 17.098C17.9293 17.254 17.7306 17.3602 17.5143 17.4032C17.298 17.4463 17.0737 17.4242 16.87 17.3398C16.6662 17.2554 16.492 17.1124 16.3695 16.929C16.247 16.7457 16.1816 16.5301 16.1816 16.3095C16.1819 16.0138 16.2994 15.7304 16.5085 15.5213C16.7176 15.3122 17.0011 15.1946 17.2967 15.1944ZM13.4999 15.1944C13.7204 15.1944 13.936 15.2598 14.1194 15.3823C14.3028 15.5048 14.4457 15.679 14.5301 15.8828C14.6145 16.0865 14.6366 16.3107 14.5936 16.5271C14.5505 16.7434 14.4443 16.9421 14.2884 17.098C14.1324 17.254 13.9337 17.3602 13.7174 17.4032C13.5011 17.4463 13.2769 17.4242 13.0731 17.3398C12.8693 17.2554 12.6952 17.1124 12.5726 16.929C12.4501 16.7457 12.3847 16.5301 12.3847 16.3095C12.385 16.0138 12.5026 15.7304 12.7116 15.5213C12.9207 15.3122 13.2042 15.1946 13.4999 15.1944ZM9.70298 15.1944C9.92354 15.1944 10.1391 15.2598 10.3225 15.3823C10.5059 15.5048 10.6488 15.679 10.7332 15.8828C10.8176 16.0865 10.8397 16.3107 10.7967 16.5271C10.7537 16.7434 10.6475 16.9421 10.4915 17.098C10.3355 17.254 10.1368 17.3602 9.92053 17.4032C9.70421 17.4463 9.47999 17.4242 9.27623 17.3398C9.07246 17.2554 8.8983 17.1124 8.77577 16.929C8.65323 16.7457 8.58783 16.5301 8.58783 16.3095C8.58812 16.0138 8.7057 15.7304 8.91477 15.5213C9.12383 15.3122 9.40731 15.1946 9.70298 15.1944Z" fill="black"/>
<path d="M18.1221 10.9555V9.05691C18.1221 7.83099 17.6351 6.65528 16.7683 5.78842C15.9014 4.92157 14.7257 4.43457 13.4998 4.43457C12.2739 4.43457 11.0982 4.92157 10.2313 5.78842C9.36444 6.65528 8.87744 7.83099 8.87744 9.05691V10.9555H9.92123V9.05691C9.92123 8.10781 10.2983 7.19759 10.9694 6.52648C11.6405 5.85536 12.5507 5.47834 13.4998 5.47834C14.4489 5.47834 15.3591 5.85536 16.0302 6.52648C16.7014 7.19759 17.0784 8.10781 17.0784 9.05691V10.9555H18.1221Z" fill="black"/>
</svg>
