<svg width="40" height="40" viewBox="0 0 40 40" fill="none" xmlns="http://www.w3.org/2000/svg">
<path d="M37.3425 3.06274H2.6575C1.18898 3.06274 0 4.25298 0 5.72024V27.9053C0 29.3726 1.18898 30.5628 2.6575 30.5628H17.1875V31.1549C17.1875 32.6221 15.9985 33.8124 14.53 33.8124H10.625V36.9374H16.3428H23.6573H29.375V33.8124H25.47C24.0015 33.8124 22.8125 32.6222 22.8125 31.1549V30.5628H37.3425C38.811 30.5628 40 29.3727 40 27.9053V5.72024C40 4.25298 38.811 3.06274 37.3425 3.06274ZM36.25 24.6765C36.25 25.166 35.8533 25.5627 35.3638 25.5627H4.63625C4.14672 25.5627 3.75 25.166 3.75 24.6765V7.69899C3.75 7.20946 4.14672 6.81274 4.63625 6.81274H35.3638C35.8534 6.81274 36.2501 7.20946 36.2501 7.69899V24.6765H36.25Z" fill="black"/>
</svg>
