<svg width="30" height="30" viewBox="0 0 30 30" fill="none" xmlns="http://www.w3.org/2000/svg">
<g clip-path="url(#clip0_2544_926)">
<path d="M28.1 1.875H4.23755V28.125H28.1V1.875Z" stroke="#020202" stroke-width="2" stroke-miterlimit="10"/>
<path d="M17.3626 13.7999C19.337 13.7999 20.9376 12.1993 20.9376 10.2249C20.9376 8.25048 19.337 6.6499 17.3626 6.6499C15.3882 6.6499 13.7876 8.25048 13.7876 10.2249C13.7876 12.1993 15.3882 13.7999 17.3626 13.7999Z" stroke="#020202" stroke-width="2" stroke-miterlimit="10"/>
<path d="M11.3875 19.7751L11.65 18.5251C11.9134 17.2049 12.627 16.017 13.6688 15.1644C14.7107 14.3118 16.0162 13.8472 17.3625 13.8501C18.7072 13.8478 20.011 14.3127 21.0507 15.1655C22.0905 16.0183 22.8016 17.2059 23.0625 18.5251L23.325 19.7751" stroke="#020202" stroke-width="2" stroke-miterlimit="10"/>
<path d="M0.649902 6.6499H7.8124" stroke="#020202" stroke-width="2" stroke-miterlimit="10"/>
<path d="M0.649902 12.6125H7.8124" stroke="#020202" stroke-width="2" stroke-miterlimit="10"/>
<path d="M0.649902 18.575H7.8124" stroke="#020202" stroke-width="2" stroke-miterlimit="10"/>
<path d="M0.649902 24.55H7.8124" stroke="#020202" stroke-width="2" stroke-miterlimit="10"/>
</g>
<defs>
<clipPath id="clip0_2544_926">
<rect width="30" height="30" fill="white"/>
</clipPath>
</defs>
</svg>
