<svg width="20" height="20" viewBox="0 0 20 20" fill="none" xmlns="http://www.w3.org/2000/svg">
<path fill-rule="evenodd" clip-rule="evenodd" d="M17.5 5.625H2.5V16.875C2.5 17.2063 2.632 17.5244 2.866 17.7588C3.10075 17.9931 3.41876 18.125 3.75026 18.125C6.57476 18.125 13.4252 18.125 16.2497 18.125C16.5812 18.125 16.8992 17.9931 17.134 17.7588C17.368 17.5244 17.5 17.2063 17.5 16.875C17.5 13.7094 17.5 5.625 17.5 5.625Z" fill="#90E0EF"/>
<path fill-rule="evenodd" clip-rule="evenodd" d="M2.5 5.625C2.5 5.625 3.48813 3.64937 4.02938 2.56624C4.24125 2.14249 4.67437 1.875 5.1475 1.875C7.20437 1.875 12.7956 1.875 14.8525 1.875C15.3256 1.875 15.7587 2.14249 15.9706 2.56624C16.5119 3.64937 17.5 5.625 17.5 5.625" fill="#90E0EF"/>
<path fill-rule="evenodd" clip-rule="evenodd" d="M14.8525 1.25H5.1475C4.4375 1.25 3.78812 1.65124 3.47062 2.28624L1.94688 5.33438C1.90063 5.42125 1.875 5.52 1.875 5.625V16.875C1.875 17.3725 2.0725 17.8494 2.42437 18.2006C2.77562 18.5525 3.2525 18.75 3.75 18.75C6.575 18.75 13.425 18.75 16.25 18.75C16.7475 18.75 17.2244 18.5525 17.5756 18.2006C17.9275 17.8494 18.125 17.3725 18.125 16.875C18.125 13.7094 18.125 5.625 18.125 5.625C18.125 5.52 18.0994 5.42125 18.0531 5.33438L16.5294 2.28624C16.2119 1.65124 15.5625 1.25 14.8525 1.25ZM12.5 6.25V8.125C12.5 8.45625 12.3681 8.77438 12.1338 9.00875C11.8994 9.24313 11.5813 9.375 11.25 9.375C10.5562 9.375 9.44375 9.375 8.75 9.375C8.41875 9.375 8.10062 9.24313 7.86625 9.00875C7.63187 8.77438 7.5 8.45625 7.5 8.125V6.25H3.125V16.875C3.125 17.0406 3.19062 17.2 3.30812 17.3169C3.425 17.4344 3.58438 17.5 3.75 17.5H16.25C16.4156 17.5 16.575 17.4344 16.6919 17.3169C16.8094 17.2 16.875 17.0406 16.875 16.875V6.25H12.5ZM5 16.25H6.25C6.595 16.25 6.875 15.97 6.875 15.625C6.875 15.28 6.595 15 6.25 15H5C4.655 15 4.375 15.28 4.375 15.625C4.375 15.97 4.655 16.25 5 16.25ZM5 13.75H7.5C7.845 13.75 8.125 13.47 8.125 13.125C8.125 12.78 7.845 12.5 7.5 12.5H5C4.655 12.5 4.375 12.78 4.375 13.125C4.375 13.47 4.655 13.75 5 13.75ZM11.25 8.125H8.75V6.25H11.25V8.125ZM11.9875 2.5L12.4044 5H16.4888L15.4113 2.84563C15.3056 2.63376 15.0894 2.5 14.8525 2.5H11.9875ZM8.0125 2.5H5.1475C4.91062 2.5 4.69437 2.63376 4.58875 2.84563L3.51125 5H7.59562L8.0125 2.5ZM8.8625 5L9.27938 2.5H10.7206L11.1375 5H8.8625Z" fill="#1990A7"/>
</svg>
