<svg width="27" height="27" viewBox="0 0 27 27" fill="none" xmlns="http://www.w3.org/2000/svg">
<g clip-path="url(#clip0_3223_1134)">
<path d="M24.7497 27H2.25028C1.0125 27 0 25.9875 0 24.7497V2.25028C0 1.0125 1.0125 0 2.25028 0H24.7497C25.9875 0 27 1.0125 27 2.25028V24.7497C27 25.9875 25.9875 27 24.7497 27Z" fill="#32BEA6"/>
<path d="M12.8021 18.2091V14.033C11.4994 13.6609 10.5447 13.0977 9.93632 12.3434C9.3284 11.5891 9.02465 10.6736 9.02465 9.59699C9.02465 8.50687 9.36805 7.59182 10.0561 6.85059C10.7438 6.1102 11.6588 5.68326 12.8025 5.56977V4.58301H14.2479V5.56977C15.3043 5.69591 16.1451 6.05662 16.7694 6.65146C17.3934 7.2463 17.7925 8.04196 17.9654 9.03843L15.4439 9.36791C15.2908 8.58365 14.8921 8.05209 14.2479 7.7728V11.6701C15.8421 12.1021 16.9289 12.6619 17.5069 13.3496C18.0848 14.0368 18.3742 14.9194 18.3742 15.9956C18.3742 17.1983 18.0106 18.2121 17.2824 19.036C16.5547 19.8599 15.5435 20.3649 14.2479 20.551V22.4148H12.8025V20.6003C11.6525 20.4611 10.7193 20.0321 10.0017 19.3145C9.2841 18.5973 8.8251 17.5839 8.62598 16.2749L11.2277 15.9956C11.3336 16.5271 11.5327 16.9861 11.8259 17.3713C12.1178 17.7573 12.4431 18.0366 12.8021 18.2091ZM12.8021 7.74327C12.4098 7.87616 12.0972 8.10187 11.8651 8.42123C11.6323 8.74016 11.5162 9.09201 11.5162 9.4776C11.5162 9.82987 11.6221 10.1568 11.8352 10.4597C12.0478 10.7622 12.3701 11.0065 12.8021 11.1925V7.74327ZM14.2475 18.3488C14.7453 18.2556 15.1507 18.0248 15.4633 17.6556C15.7755 17.2874 15.932 16.8532 15.932 16.3546C15.932 15.9095 15.8004 15.526 15.5384 15.2033C15.276 14.881 14.8461 14.6338 14.2479 14.4608V18.3488H14.2475Z" fill="white"/>
</g>
<defs>
<clipPath id="clip0_3223_1134">
<rect width="27" height="27" fill="white"/>
</clipPath>
</defs>
</svg>
