<svg width="27" height="27" viewBox="0 0 27 27" fill="none" xmlns="http://www.w3.org/2000/svg">
<g clip-path="url(#clip0_3223_1123)">
<path d="M1.41318 26.9788C1.24443 26.9788 1.07568 26.9155 0.949114 26.7679C0.822552 26.6413 0.759271 26.4726 0.780364 26.2827L2.10927 5.86396C2.13036 5.52646 2.40458 5.27334 2.74208 5.27334H8.31083V5.18896C8.31083 3.79678 8.85927 2.51006 9.82958 1.51865C10.821 0.569434 12.1077 0.0209961 13.4999 0.0209961C16.3476 0.0209961 18.689 2.34131 18.689 5.21006C18.689 5.23115 18.6679 5.25225 18.6679 5.27334V5.29443H24.2577C24.5952 5.29443 24.8694 5.54756 24.8905 5.88506L26.1983 26.1562C26.2194 26.2194 26.2194 26.2616 26.2194 26.3249C26.1983 26.6835 25.9241 26.9788 25.5655 26.9788H1.41318ZM2.08818 25.7132H24.8905L23.6671 6.56006H18.6679V8.07881H18.689C19.0265 8.31084 19.2163 8.64834 19.2163 9.02803C19.2163 9.68193 18.689 10.2093 18.0351 10.2093C17.3811 10.2093 16.8538 9.68193 16.8538 9.02803C16.8538 8.64834 17.0436 8.31084 17.3811 8.07881H17.4022V6.56006H9.57646V8.07881H9.59755C9.93505 8.31084 10.1249 8.64834 10.1249 9.02803C10.1249 9.68193 9.59755 10.2093 8.94365 10.2093C8.28974 10.2093 7.7624 9.68193 7.7624 9.02803C7.7624 8.64834 7.95224 8.31084 8.28974 8.07881H8.31083V6.56006H3.31161L2.08818 25.7132ZM13.4999 1.30771C11.3483 1.30771 9.57646 3.0585 9.57646 5.23115V5.31553H17.4444L17.4233 5.27334V5.23115C17.4233 3.0585 15.6515 1.30771 13.4999 1.30771Z" fill="#26B074"/>
</g>
<defs>
<clipPath id="clip0_3223_1123">
<rect width="27" height="27" fill="white"/>
</clipPath>
</defs>
</svg>
