<svg width="27" height="27" viewBox="0 0 27 27" fill="none" xmlns="http://www.w3.org/2000/svg">
<g clip-path="url(#clip0_3223_1154)">
<path d="M26.9091 25.8526V6.74483C26.9091 6.28699 26.6774 5.88431 26.2802 5.71331L13.9407 0.0868788C13.6539 -0.0289596 13.3119 -0.0289596 13.025 0.0868788L0.685478 5.71331C0.282801 5.88431 0.0566406 6.28699 0.0566406 6.74483V25.8526C0.0566406 26.4815 0.575155 27 1.20399 27C1.83283 27 2.35134 26.4815 2.35134 25.8526V7.4895L13.5987 2.38158L24.7854 7.4895V25.8526C24.7854 26.4815 25.3039 27 25.9327 27C26.5616 27 27.0856 26.487 26.9091 25.8526Z" fill="#26B074"/>
<path d="M17.2726 15.753C17.9015 15.753 18.42 15.2345 18.42 14.6056V7.20302C18.42 6.57418 17.9015 6.05566 17.2726 6.05566H9.87001C9.24117 6.05566 8.72266 6.57418 8.72266 7.20302V14.6056C8.72266 15.2345 9.24117 15.753 9.87001 15.753H17.2726ZM11.0174 8.41105H16.1253V13.519H11.0174V8.41105Z" fill="#26B074"/>
<path d="M11.7619 17.3027H4.35927C3.73043 17.3027 3.21191 17.8213 3.21191 18.4501V25.8527C3.21191 26.4815 3.73043 27.0001 4.35927 27.0001H11.7619C12.3907 27.0001 12.9092 26.4815 12.9092 25.8527V18.4501C12.9092 17.8213 12.3907 17.3027 11.7619 17.3027ZM10.6145 24.766H5.50662V19.6581H10.6145V24.766Z" fill="#26B074"/>
<path d="M22.7775 17.3027H15.3749C14.7461 17.3027 14.2275 17.8213 14.2275 18.4501V25.8527C14.2275 26.4815 14.7461 27.0001 15.3749 27.0001H22.7775C23.4064 27.0001 23.9249 26.4815 23.9249 25.8527V18.4501C23.9249 17.8213 23.4119 17.3027 22.7775 17.3027ZM21.6302 24.766H16.5222V19.6581H21.6302V24.766Z" fill="#26B074"/>
</g>
<defs>
<clipPath id="clip0_3223_1154">
<rect width="27" height="27" fill="white"/>
</clipPath>
</defs>
</svg>
