<svg width="27" height="27" viewBox="0 0 27 27" fill="none" xmlns="http://www.w3.org/2000/svg">
<g clip-path="url(#clip0_3254_1096)">
<path d="M19.5141 0H1.76947V27H25.2305V5.71642L19.5141 0ZM19.8305 1.84357L23.3869 5.39997H19.8305V1.84357ZM24.1505 25.92H2.84951V1.07998H18.7505V6.48H24.1505L24.1505 25.92Z" fill="black"/>
<path d="M17.3055 18.2019V24.2318H22.3681V18.2019H17.3055ZM21.2881 23.1518H18.3856V19.2818H21.2881V23.1518Z" fill="black"/>
<path d="M10.9685 14.9619V24.2318H16.031V14.9619H10.9685ZM14.951 23.1518H12.0485V16.0419H14.951V23.1518Z" fill="black"/>
<path d="M4.63138 11.7219V24.2318H9.69389V11.7219H4.63138ZM8.61385 23.1518H5.71136V12.8019H8.61385V23.1518Z" fill="black"/>
</g>
<defs>
<clipPath id="clip0_3254_1096">
<rect width="27" height="27" fill="white"/>
</clipPath>
</defs>
</svg>
