<svg width="40" height="40" viewBox="0 0 40 40" fill="none" xmlns="http://www.w3.org/2000/svg">
<path fill-rule="evenodd" clip-rule="evenodd" d="M23.75 8.07377C25.5175 8.62877 27.1162 9.56749 28.45 10.7912C28.45 10.7912 29.2025 10.3575 30.0325 9.87751C31.2287 9.18751 32.7575 9.59625 33.4475 10.7925C33.85 11.4888 34.2963 12.2612 34.6975 12.9575C35.3888 14.1537 34.9787 15.6825 33.7825 16.3725C32.9537 16.8512 32.2037 17.2837 32.2037 17.2837C32.3975 18.1587 32.5 19.0675 32.5 20C32.5 20.9325 32.3975 21.8413 32.2037 22.7163C32.2037 22.7163 32.9537 23.1488 33.7825 23.6275C34.3575 23.9588 34.7762 24.505 34.9475 25.145C35.1187 25.7862 35.03 26.4688 34.6975 27.0425C34.2963 27.7388 33.85 28.5112 33.4475 29.2075C32.7575 30.4037 31.2287 30.8125 30.0325 30.1225C29.2025 29.6425 28.45 29.2088 28.45 29.2088C27.1162 30.4325 25.5175 31.3712 23.75 31.9262V33.75C23.75 35.1313 22.6312 36.25 21.25 36.25C20.445 36.25 19.555 36.25 18.75 36.25C17.3687 36.25 16.25 35.1313 16.25 33.75C16.25 32.7925 16.25 31.9262 16.25 31.9262C14.4825 31.3712 12.8837 30.4325 11.55 29.2088C11.55 29.2088 10.7975 29.6425 9.9675 30.1225C8.77125 30.8125 7.24249 30.4037 6.55249 29.2075C6.14999 28.5112 5.70374 27.7388 5.30249 27.0425C4.61124 25.8463 5.02125 24.3175 6.2175 23.6275C7.04625 23.1488 7.79625 22.7163 7.79625 22.7163C7.6025 21.8413 7.5 20.9325 7.5 20C7.5 19.0675 7.6025 18.1587 7.79625 17.2837C7.79625 17.2837 7.04625 16.8512 6.2175 16.3725C5.6425 16.0412 5.22375 15.495 5.0525 14.855C4.88125 14.2138 4.96999 13.5312 5.30249 12.9575C5.70374 12.2612 6.14999 11.4888 6.55249 10.7925C7.24249 9.59625 8.77125 9.18751 9.9675 9.87751C10.7975 10.3575 11.55 10.7912 11.55 10.7912C12.8837 9.56749 14.4825 8.62877 16.25 8.07377V6.25C16.25 4.86875 17.3687 3.75 18.75 3.75C19.555 3.75 20.445 3.75 21.25 3.75C22.6312 3.75 23.75 4.86875 23.75 6.25C23.75 7.2075 23.75 8.07377 23.75 8.07377Z" fill="#90E0EF"/>
<path fill-rule="evenodd" clip-rule="evenodd" d="M25 7.18876V6.25C25 4.17875 23.3212 2.5 21.25 2.5H18.75C16.6787 2.5 15 4.17875 15 6.25V7.18876C13.695 7.70001 12.4862 8.40374 11.4087 9.26624L10.5925 8.79501C8.79874 7.75876 6.50499 8.37375 5.46999 10.1675L4.21999 12.3325C3.72249 13.1937 3.58749 14.2175 3.84499 15.1775C4.10249 16.1387 4.73124 16.9575 5.59249 17.455L6.40624 17.925C6.30374 18.6012 6.24999 19.295 6.24999 20C6.24999 20.705 6.30374 21.3988 6.40624 22.075L5.59249 22.545C3.79874 23.58 3.18374 25.8738 4.21999 27.6675L5.46999 29.8325C6.50499 31.6262 8.79874 32.2412 10.5925 31.205L11.4087 30.7338C12.4862 31.5963 13.695 32.3012 15 32.8112V33.75C15 35.8213 16.6787 37.5 18.75 37.5H21.25C23.3212 37.5 25 35.8213 25 33.75V32.8112C26.305 32.3 27.5137 31.5963 28.5912 30.7338L29.4075 31.205C31.2012 32.2412 33.495 31.6262 34.53 29.8325L35.78 27.6675C36.2775 26.8063 36.4125 25.7825 36.155 24.8225C35.8975 23.8613 35.2687 23.0425 34.4075 22.545L33.5937 22.075C33.6962 21.3988 33.75 20.705 33.75 20C33.75 19.295 33.6962 18.6012 33.5937 17.925L34.4075 17.455C36.2012 16.42 36.8162 14.1262 35.78 12.3325L34.53 10.1675C33.495 8.37375 31.2012 7.75876 29.4075 8.79501L28.5912 9.26624C27.515 8.40374 26.3062 7.69876 25 7.18876ZM22.5 8.07377C22.5 8.61877 22.8537 9.10249 23.375 9.26624C24.9662 9.76624 26.4037 10.61 27.6037 11.7125C28.0062 12.0812 28.6012 12.1475 29.075 11.8737L30.6575 10.96C31.2562 10.615 32.02 10.82 32.365 11.4175L33.615 13.5825C33.96 14.18 33.7562 14.945 33.1575 15.29L31.5787 16.2012C31.1062 16.475 30.865 17.0225 30.9837 17.555C31.1575 18.3425 31.25 19.16 31.25 20C31.25 20.84 31.1575 21.6575 30.9837 22.445C30.865 22.9775 31.1062 23.525 31.5787 23.7988L33.1575 24.71C33.445 24.8763 33.655 25.1488 33.74 25.4688C33.8262 25.7887 33.7812 26.13 33.615 26.4175L32.365 28.5825C32.02 29.18 31.2562 29.385 30.6575 29.04C29.8275 28.56 29.075 28.1263 29.075 28.1263C28.6012 27.8525 28.0062 27.9188 27.6037 28.2875C26.4037 29.3888 24.965 30.2338 23.375 30.735C22.8537 30.8988 22.5 31.3812 22.5 31.9262V33.75C22.5 34.44 21.94 35 21.25 35H18.75C18.06 35 17.5 34.44 17.5 33.75C17.5 32.7925 17.5 31.9262 17.5 31.9262C17.5 31.3812 17.1462 30.8975 16.625 30.7338C15.0337 30.2338 13.5962 29.39 12.3962 28.2875C11.9937 27.9188 11.3987 27.8525 10.925 28.1263L9.34249 29.04C8.74374 29.385 7.97999 29.18 7.63499 28.5825L6.38499 26.4175C6.03999 25.82 6.24374 25.055 6.84249 24.71L8.42124 23.7988C8.89374 23.525 9.13499 22.9775 9.01624 22.445C8.84249 21.6575 8.74999 20.84 8.74999 20C8.74999 19.16 8.84249 18.3425 9.01624 17.555C9.13499 17.0225 8.89374 16.475 8.42124 16.2012L6.84249 15.29C6.55499 15.1237 6.34499 14.8512 6.25999 14.5312C6.17374 14.2113 6.21874 13.87 6.38499 13.5825L7.63499 11.4175C7.97999 10.82 8.74374 10.615 9.34249 10.96C10.1725 11.44 10.925 11.8737 10.925 11.8737C11.3987 12.1475 11.9937 12.0812 12.3962 11.7125C13.5962 10.6112 15.035 9.76623 16.625 9.26498C17.1462 9.10123 17.5 8.61877 17.5 8.07377V6.25C17.5 5.56 18.06 5 18.75 5H21.25C21.94 5 22.5 5.56 22.5 6.25C22.5 7.2075 22.5 8.07377 22.5 8.07377ZM20 12.5C15.8612 12.5 12.5 15.8612 12.5 20C12.5 24.1388 15.8612 27.5 20 27.5C24.1387 27.5 27.5 24.1388 27.5 20C27.5 15.8612 24.1387 12.5 20 12.5ZM20 15C22.76 15 25 17.24 25 20C25 22.76 22.76 25 20 25C17.24 25 15 22.76 15 20C15 17.24 17.24 15 20 15Z" fill="#1990A7"/>
</svg>
