<svg width="30" height="30" viewBox="0 0 30 30" fill="none" xmlns="http://www.w3.org/2000/svg">
<path d="M18.75 3.75C18.75 3.05965 19.3096 2.5 20 2.5C24.1421 2.5 27.5 5.85786 27.5 10V20C27.5 24.1421 24.1421 27.5 20 27.5H10C5.85786 27.5 2.5 24.1421 2.5 20C2.5 19.3096 3.05965 18.75 3.75 18.75C4.44035 18.75 5 19.3096 5 20C5 22.7614 7.23857 25 10 25H20C22.7614 25 25 22.7614 25 20V10C25 7.23857 22.7614 5 20 5C19.3096 5 18.75 4.44035 18.75 3.75Z" fill="#26B074"/>
<path d="M4.63331 15.9807L3.95132 15.3433M4.63331 15.9807C5.12231 15.4574 5.77861 14.7832 6.46323 14.1593C7.16067 13.5239 7.8368 12.9882 8.37053 12.6999C8.82837 12.4526 9.68805 12.3005 10.5006 12.3106C10.7808 12.3141 11.0171 12.3368 11.1949 12.3684C11.2005 13.1874 11.1931 14.6837 11.1893 15.3284C11.1839 16.2624 12.2985 16.7475 12.9786 16.1098L18.6739 10.7705C19.1056 10.3658 19.1235 9.68638 18.7138 9.25953L13.0165 3.32491C12.3537 2.63449 11.1875 3.10367 11.1875 4.06073V6.45994C10.6789 6.42175 10.0326 6.39299 9.34923 6.41264C8.16415 6.4467 6.63681 6.62824 5.59027 7.35499C5.45997 7.44548 5.33536 7.54426 5.21701 7.64729C3.11598 9.47618 2.64461 12.385 2.36552 14.7107L2.34055 14.9188C2.18496 16.2153 3.78178 16.8918 4.63331 15.9807ZM11.6963 14.7419L12.1276 15.2019M11.6963 14.7419C11.6965 14.7418 11.6961 14.742 11.6963 14.7419Z" stroke="#26B074" stroke-width="2" stroke-linecap="round"/>
</svg>
