<svg width="27" height="27" viewBox="0 0 27 27" fill="none" xmlns="http://www.w3.org/2000/svg">
<g clip-path="url(#clip0_3150_1034)">
<path d="M25.4339 9.84406L23.6357 4.03906H3.36412L1.56592 9.84406C1.76032 10.3139 2.08432 10.6811 2.47312 10.8647V22.9607H4.07152H10.4489H24.5213V10.8647C24.9155 10.6811 25.2395 10.3139 25.4339 9.84406Z" fill="white" stroke="white" stroke-width="10" stroke-miterlimit="10"/>
<path d="M24.5213 9.55273H2.47314V22.9609H24.5213V9.55273Z" fill="#F2F2A9"/>
<path d="M10.4545 12.6465H4.07715V22.9605H10.4545V12.6465Z" fill="#736450"/>
<path d="M8.99116 17.0264H5.53516V19.3862H8.99116V17.0264Z" fill="#FFEAD9"/>
<path d="M7.18732 14.5742L5.76172 17.0312H8.61292L7.18732 14.5742ZM7.18732 15.1412L8.28352 17.0258H6.09652L7.18732 15.1412Z" fill="#332C23"/>
<path d="M7.3602 17.6523H5.9292V17.7873H7.3602V17.6523Z" fill="#66665C"/>
<path d="M8.59677 18.2197H5.93457V18.3547H8.59677V18.2197Z" fill="#66665C"/>
<path d="M8.4402 18.7812H5.9292V18.9163H8.4402V18.7812Z" fill="#66665C"/>
<path d="M22.4478 9.84375C22.7394 10.535 23.2956 10.9993 23.9382 10.9993C24.5808 10.9993 25.1424 10.5296 25.4286 9.84375H22.4478Z" fill="#CC543D"/>
<path d="M19.4668 9.84375C19.7584 10.535 20.3146 10.9993 20.9572 10.9993C21.5998 10.9993 22.1614 10.5296 22.4476 9.84375H19.4668Z" fill="#CC543D"/>
<path d="M16.481 9.84375C16.7726 10.535 17.3288 10.9993 17.9714 10.9993C18.614 10.9993 19.1756 10.5296 19.4618 9.84375H16.481Z" fill="#CC543D"/>
<path d="M13.5 9.84375C13.7916 10.535 14.3478 10.9993 14.9904 10.9993C15.633 10.9993 16.1946 10.5296 16.4808 9.84375H13.5Z" fill="#CC543D"/>
<path d="M10.519 9.84375C10.8106 10.535 11.3668 10.9993 12.0094 10.9993C12.652 10.9993 13.2136 10.5296 13.4998 9.84375H10.519Z" fill="#CC543D"/>
<path d="M7.53271 9.84375C7.82431 10.535 8.38052 10.9993 9.02312 10.9993C9.66572 10.9993 10.2273 10.5296 10.5135 9.84375H7.53271Z" fill="#CC543D"/>
<path d="M4.55225 9.84375C4.84385 10.535 5.40005 10.9993 6.04265 10.9993C6.68525 10.9993 7.24685 10.5296 7.53305 9.84375H4.55225Z" fill="#CC543D"/>
<path d="M1.56592 9.84375C1.85752 10.535 2.41372 10.9993 3.05632 10.9993C3.69892 10.9993 4.26052 10.5296 4.54672 9.84375H1.56592Z" fill="#CC543D"/>
<path d="M9.64972 18.6295C9.88234 18.6295 10.0709 18.4409 10.0709 18.2083C10.0709 17.9757 9.88234 17.7871 9.64972 17.7871C9.41709 17.7871 9.22852 17.9757 9.22852 18.2083C9.22852 18.4409 9.41709 18.6295 9.64972 18.6295Z" fill="#BF9B52"/>
<path d="M12.8359 12.2148V19.9854H22.5505V12.2148H12.8359ZM21.2437 15.6546H18.1441V13.5378H21.2437V15.6546ZM17.2477 13.5378V15.6546H14.1481V13.5378H17.2477ZM14.1481 16.551H17.2477V18.8892H14.1481V16.551ZM18.1441 18.8892V16.551H21.2437V18.8892H18.1441Z" fill="#997E5C"/>
<path d="M21.2436 16.5518H18.144V18.89H21.2436V16.5518Z" fill="#CCFFFC"/>
<path d="M17.2475 13.5381H14.1479V15.6549H17.2475V13.5381Z" fill="#CCFFFC"/>
<path d="M17.2475 16.5518H14.1479V18.89H17.2475V16.5518Z" fill="#CCFFFC"/>
<path d="M21.2436 13.5381H18.144V15.6549H21.2436V13.5381Z" fill="#CCFFFC"/>
<path d="M23.6357 4.03906H3.36412L1.56592 9.84406H3.37492H23.6249H23.6357H25.4339L23.6357 4.03906Z" fill="#E65F45"/>
<path d="M2.34375 7.32801H24.6566L24.095 5.52441H2.90535L2.34375 7.32801Z" fill="#FFFAE6"/>
</g>
<defs>
<clipPath id="clip0_3150_1034">
<rect width="27" height="27" fill="white"/>
</clipPath>
</defs>
</svg>
