<svg width="21" height="20" viewBox="0 0 21 20" fill="none" xmlns="http://www.w3.org/2000/svg">
<g clip-path="url(#clip0_2346_894)">
<path d="M10.5 1.66669C8.73189 1.66669 7.0362 2.36907 5.78595 3.61931C4.53571 4.86955 3.83333 6.56524 3.83333 8.33335V9.91669C3.58194 10.1357 3.37825 10.4041 3.2349 10.7051C3.09155 11.0062 3.01159 11.3335 3 11.6667C3.01898 12.1499 3.18349 12.6161 3.47197 13.0042C3.76045 13.3923 4.15944 13.6842 4.61667 13.8417C5.7 16.4334 7.875 18.3334 10.5 18.3334H13V16.6667H10.5C8.61667 16.6667 6.90833 15.25 6.05 13.0084L5.875 12.55L5.38333 12.5C5.1831 12.4717 4.99999 12.3716 4.86814 12.2183C4.73628 12.0649 4.66468 11.8689 4.66667 11.6667C4.66754 11.5213 4.70647 11.3786 4.77956 11.2529C4.85266 11.1271 4.95739 11.0227 5.08333 10.95L5.5 10.7084V9.16669C5.5 8.94567 5.5878 8.73371 5.74408 8.57743C5.90036 8.42115 6.11232 8.33335 6.33333 8.33335H14.6667C14.8877 8.33335 15.0996 8.42115 15.2559 8.57743C15.4122 8.73371 15.5 8.94567 15.5 9.16669V13.3334H12.0917C12.016 13.1212 11.8845 12.9334 11.7109 12.7899C11.5373 12.6464 11.3282 12.5524 11.1056 12.5179C10.883 12.4835 10.6553 12.5098 10.4464 12.5941C10.2376 12.6784 10.0554 12.8175 9.91909 12.9969C9.7828 13.1762 9.6975 13.389 9.6722 13.6128C9.6469 13.8366 9.68254 14.0631 9.77534 14.2683C9.86815 14.4735 10.0147 14.6498 10.1994 14.7786C10.3842 14.9074 10.6003 14.9839 10.825 15H17.1667C17.6087 15 18.0326 14.8244 18.3452 14.5119C18.6577 14.1993 18.8333 13.7754 18.8333 13.3334V11.6667C18.8333 11.2247 18.6577 10.8007 18.3452 10.4882C18.0326 10.1756 17.6087 10 17.1667 10V8.33335C17.1667 6.56524 16.4643 4.86955 15.214 3.61931C13.9638 2.36907 12.2681 1.66669 10.5 1.66669Z" fill="#0298ED"/>
</g>
<defs>
<clipPath id="clip0_2346_894">
<rect width="20" height="20" fill="white" transform="translate(0.5)"/>
</clipPath>
</defs>
</svg>
