<svg width="20" height="20" viewBox="0 0 20 20" fill="none" xmlns="http://www.w3.org/2000/svg">
<path fill-rule="evenodd" clip-rule="evenodd" d="M10.0002 2.5C10.2212 2.5 10.4332 2.5878 10.5894 2.74408L16.4227 8.57742C16.7482 8.90283 16.7482 9.4305 16.4227 9.75592C16.0973 10.0813 15.5697 10.0813 15.2442 9.75592L10.8335 5.34517V16.6667C10.8335 17.1269 10.4604 17.5 10.0002 17.5C9.53991 17.5 9.16683 17.1269 9.16683 16.6667V5.34517L4.75609 9.75592C4.43065 10.0813 3.90301 10.0813 3.57757 9.75592C3.25214 9.4305 3.25214 8.90283 3.57757 8.57742L9.41091 2.74408C9.56716 2.5878 9.77916 2.5 10.0002 2.5Z" fill="black" fill-opacity="0.7"/>
</svg>
