<svg width="21" height="20" viewBox="0 0 21 20" fill="none" xmlns="http://www.w3.org/2000/svg">
<g clip-path="url(#clip0_1641_1005)">
<path d="M10.5 20C16.0228 20 20.5 15.5228 20.5 10C20.5 4.47715 16.0228 0 10.5 0C4.97715 0 0.5 4.47715 0.5 10C0.5 15.5228 4.97715 20 10.5 20Z" fill="#3498DB"/>
<path d="M12.2764 1.83105L2.72217 14.4445L7.94883 19.6712C8.76331 19.8855 9.6182 20.0001 10.4999 20.0001C16.0048 20.0001 20.4702 15.5519 20.4993 10.054L12.2764 1.83105Z" fill="#2C8BBF"/>
<path d="M13.5373 13.099H17.0806C17.2025 13.099 17.3013 13.0002 17.3013 12.8784V9.79782C17.3013 9.67594 17.2025 9.57715 17.0806 9.57715H13.5373C13.4154 9.57715 13.3167 9.67594 13.3167 9.79782V12.8784C13.3167 13.0002 13.4155 13.099 13.5373 13.099Z" fill="#BDC3C7"/>
<path d="M15.6868 9.57715H14.9312V11.0885H15.6868V9.57715Z" fill="#34495E"/>
<path d="M8.74802 13.099H12.2913C12.4132 13.099 12.512 13.0002 12.512 12.8784V9.79782C12.512 9.67594 12.4132 9.57715 12.2913 9.57715H8.74802C8.62613 9.57715 8.52734 9.67594 8.52734 9.79782V12.8784C8.52734 13.0002 8.62613 13.099 8.74802 13.099Z" fill="#ECF0F1"/>
<path d="M10.8974 9.57715H10.1417V11.0885H10.8974V9.57715Z" fill="#34495E"/>
<path d="M3.91928 13.099H7.46258C7.58447 13.099 7.68325 13.0002 7.68325 12.8784V9.79782C7.68325 9.67594 7.58447 9.57715 7.46258 9.57715H3.91928C3.7974 9.57715 3.69861 9.67594 3.69861 9.79782V12.8784C3.69861 13.0002 3.7974 13.099 3.91928 13.099Z" fill="#ECF0F1"/>
<path d="M6.0688 9.57715H5.31311V11.0885H6.0688V9.57715Z" fill="#34495E"/>
<path d="M11.1428 9.19181H14.6861C14.808 9.19181 14.9068 9.09302 14.9068 8.97113V5.8906C14.9068 5.76871 14.808 5.66992 14.6861 5.66992H11.1428C11.0209 5.66992 10.9221 5.76871 10.9221 5.8906V8.97113C10.9221 9.09302 11.021 9.19181 11.1428 9.19181Z" fill="#BDC3C7"/>
<path d="M13.2922 5.66992H12.5365V7.1813H13.2922V5.66992Z" fill="#34495E"/>
<path d="M6.31406 9.19181H9.85736C9.97924 9.19181 10.078 9.09302 10.078 8.97113V5.8906C10.078 5.76871 9.97924 5.66992 9.85736 5.66992H6.31406C6.19217 5.66992 6.09338 5.76871 6.09338 5.8906V8.97113C6.09338 9.09302 6.19217 9.19181 6.31406 9.19181Z" fill="#ECF0F1"/>
<path d="M8.46358 5.66992H7.70789V7.1813H8.46358V5.66992Z" fill="#34495E"/>
<path d="M8.57431 5.28556H12.1176C12.2395 5.28556 12.3383 5.18677 12.3383 5.06488V1.98435C12.3383 1.86246 12.2395 1.76367 12.1176 1.76367H8.57431C8.45243 1.76367 8.35364 1.86246 8.35364 1.98435V5.06488C8.35364 5.18677 8.45243 5.28556 8.57431 5.28556Z" fill="#ECF0F1"/>
<path d="M12.2913 9.57715H10.5112V13.099H12.2913C12.4132 13.099 12.512 13.0002 12.512 12.8784V9.79782C12.512 9.67594 12.4132 9.57715 12.2913 9.57715Z" fill="#BDC3C7"/>
<path d="M12.1176 1.76367H10.3429V5.28556H12.1176C12.2395 5.28556 12.3382 5.18677 12.3382 5.06488V1.98428C12.3382 1.86246 12.2394 1.76367 12.1176 1.76367Z" fill="#BDC3C7"/>
<path d="M10.7238 1.76367H9.96814V3.27505H10.7238V1.76367Z" fill="#34495E"/>
<path d="M10.8975 9.57715H10.5112V11.0885H10.8975V9.57715Z" fill="#2C3E50"/>
<path d="M10.7238 1.76367H10.3429V3.27505H10.7238V1.76367Z" fill="#2C3E50"/>
<path d="M17.1667 14.2256H14.9445V15.3367H17.1667V14.2256Z" fill="#2C3E50"/>
<path d="M11.6111 14.2256H9.38892V15.3367H11.6111V14.2256Z" fill="#34495E"/>
<path d="M11.6111 14.2256H10.5112V15.3367H11.6111V14.2256Z" fill="#2C3E50"/>
<path d="M6.0556 14.2256H3.83337V15.3367H6.0556V14.2256Z" fill="#34495E"/>
<path d="M18.2777 13.333H2.72217V14.4441H18.2777V13.333Z" fill="#2C3E50"/>
<path d="M18.2778 13.333H10.5112V14.4441H18.2778V13.333Z" fill="#202E3A"/>
</g>
<defs>
<clipPath id="clip0_1641_1005">
<rect width="20" height="20" fill="white" transform="translate(0.5)"/>
</clipPath>
</defs>
</svg>
